# Blender 5.0.1
# www.blender.org
mtllib raccoon-jules.mtl
o raccoon
v 2.274970 -0.069109 9.043872
v 2.261405 -0.231073 8.873898
v 2.202967 -0.454183 8.827912
v 2.121977 -0.653217 8.923480
v 2.049370 -0.752153 9.124099
v 2.012879 -0.713200 9.353137
v 2.452893 -0.222571 9.053883
v 2.512802 -0.440426 9.119134
v 2.431811 -0.639463 9.214703
v 2.240858 -0.743651 9.304084
v 2.363910 -0.086987 9.260846
v 2.368824 -0.221047 9.454007
v 2.287833 -0.420084 9.549576
v 2.151875 -0.608069 9.511046
v 2.117428 -0.011694 9.208771
v 1.970006 -0.099220 9.369748
v 1.889016 -0.298256 9.465317
v 1.905392 -0.532774 9.458972
v 2.054076 -0.100744 8.969624
v 1.867501 -0.243306 8.982800
v 1.786511 -0.442340 9.078368
v 1.842040 -0.621824 9.219825
v 2.258395 -2.749689 9.402902
v 2.583769 0.046064 8.589347
v 2.663939 -3.136839 4.387044
v 2.187206 1.425852 6.794046
v 0.000000 -4.475551 6.472498
v 0.000000 2.143728 4.513318
v 0.000000 -4.388696 8.420559
v 0.000000 1.498284 9.332894
v 3.866442 0.380506 6.670557
v 3.500815 -2.395801 5.551081
v 3.577387 -2.433913 6.819909
v 4.654884 -1.415355 5.889756
v 4.413250 -1.870922 5.890654
v 4.444301 -1.886379 6.405169
v 4.685935 -1.430812 6.404271
v 2.648918 -0.684751 4.743352
v 2.525934 -0.773004 9.019170
v 3.754200 -1.405061 5.565550
v 3.830772 -1.443175 6.834378
v 4.534067 -1.643139 5.890204
v 4.565117 -1.658595 6.404720
v 1.211079 1.819042 7.153513
v 1.310913 -3.382792 9.193870
v 1.298781 -3.280168 5.893157
v 1.885353 -0.575379 9.696237
v 0.000000 -3.802330 11.238880
v 0.000000 -1.343586 11.466889
v 1.155060 -3.417283 11.364628
v 0.566769 -1.354374 11.295890
v 1.169471 -2.509896 11.381236
v 0.000000 -3.302007 12.621231
v 0.000000 -2.468787 12.643386
v 0.589708 -3.175625 12.628135
v 0.501072 -2.478851 12.606899
v 0.619364 -2.832809 12.630024
v 0.000000 -3.254401 12.955636
v 0.000000 -2.534950 12.963120
v 0.423310 -3.143871 12.953653
v 0.380925 -2.545521 12.935943
v 0.441428 -2.847725 12.951573
v 0.000000 -3.051645 13.106192
v 0.000000 -2.710758 13.109194
v 0.250593 -2.997988 13.101740
v 0.235536 -2.714904 13.093955
v 0.250074 -2.856891 13.098793
v 0.513595 1.490574 5.022234
v 2.451686 1.767338 5.099659
v 4.007584 -0.414321 5.580019
v 4.084156 -0.452436 6.848846
v 1.829013 0.589061 8.959044
v 4.330911 3.433202 7.062079
v 4.588316 3.227039 7.039937
v 4.153238 3.527957 7.130497
v 0.000000 -2.881970 13.109436
v 2.272331 0.597254 8.299777
v 2.591598 -1.237150 8.909939
v 1.906569 -1.440454 10.471363
v 1.342562 0.479728 9.407778
v 3.898646 0.303200 7.064763
v 2.277143 1.024751 8.019682
v 1.269685 1.430507 8.241199
v 4.599392 3.215579 7.115946
v 4.345859 3.356464 7.298628
v 4.181994 3.454712 7.340420
v 2.267172 1.155556 7.872036
v 4.226496 3.250699 7.177766
v 3.715725 0.511927 7.023975
v 1.448089 1.485433 8.052079
v 4.367316 3.173409 7.063234
v 4.121125 3.315619 7.217253
v 2.536368 -3.044942 7.324845
v 0.000000 2.304445 7.364126
v 0.000000 -4.377316 7.827364
v 3.539100 -2.414856 6.185495
v 4.045869 -0.433378 6.214432
v 4.428775 -1.878651 6.147911
v 4.670410 -1.423083 6.147013
v 4.549592 -1.650867 6.147462
v 0.667578 1.612223 7.468493
v 1.318288 -3.245352 8.016017
v 3.882544 0.341853 6.867660
v 1.240382 1.624774 7.697357
v 4.593854 3.221310 7.077941
v 4.167616 3.491333 7.235458
v 4.338385 3.394833 7.180354
v 0.930229 1.236169 3.940171
v 2.197366 1.056048 3.940379
v 2.640546 -0.660801 3.693001
v 2.383074 -2.521080 3.546553
v 1.383145 -3.411942 4.318184
v 0.000000 -4.262487 4.755649
v 0.000000 1.649129 3.714967
v 0.930404 3.206584 0.122389
v 2.540768 2.547678 0.034713
v 4.309196 0.244476 -0.393277
v 2.833040 -2.423143 -0.586879
v 1.433548 -3.274394 0.377425
v 0.000000 -4.476421 0.926521
v 0.000000 3.720824 -0.013709
v 0.968821 2.837104 -3.394725
v 2.479322 2.219059 -3.476964
v 4.212349 0.058686 -3.878413
v 2.753469 -2.443506 -4.060008
v 1.440764 -3.177941 -3.142699
v 0.000000 -4.305426 -2.627653
v 0.000000 3.319454 -3.522384
v 0.819153 1.455622 -6.785895
v 1.829755 1.009689 -6.845985
v 2.870121 -0.376169 -7.100814
v 1.990738 -2.014609 -7.210582
v 1.080151 -3.197972 -6.743119
v 0.000000 -3.948729 -6.384768
v 0.000000 1.802988 -6.823836
v 0.433128 -0.444957 -8.454660
v 0.681079 -0.610220 -8.555858
v 0.743565 -0.812776 -8.653028
v 0.697771 -1.135939 -8.762381
v 0.469603 -1.425746 -8.750216
v 0.000000 -1.605135 -8.756849
v 0.000000 -0.373434 -8.362601
v 0.506095 -2.556590 12.490263
v 0.616949 -2.811164 12.508065
v 0.000000 -2.551980 12.522681
v 0.605429 -3.057161 12.506570
v 0.000000 -3.144779 12.489317
v 0.510523 0.255859 -9.361553
v 0.939165 -0.063213 -9.457920
v 1.088226 -0.481049 -9.602299
v 0.971538 -0.989162 -9.770747
v 0.549950 -1.444981 -9.892552
v 0.000000 -1.716123 -10.006277
v 0.000000 0.446926 -9.327767
v 0.828408 2.163019 -12.878427
v 1.625749 1.499652 -13.003058
v 1.955031 0.623992 -13.263412
v 1.695666 -0.370979 -13.608260
v 0.897809 -1.224831 -13.935540
v 0.000000 -1.671067 -14.177085
v 0.000000 2.524847 -12.875155
v 1.054208 3.661005 -15.190424
v 2.187874 2.528761 -15.464120
v 2.671322 1.356164 -15.820233
v 2.257508 0.131862 -16.236164
v 1.116493 -1.144892 -16.678316
v 0.000000 -1.836699 -16.957577
v 0.000000 4.265077 -15.081463
v 1.011718 4.397895 -17.891363
v 2.126075 3.253283 -18.229198
v 2.606066 2.051691 -18.618633
v 2.184273 0.790181 -19.027683
v 1.063784 -0.531872 -19.424858
v 0.000000 -1.256685 -19.620352
v 0.000000 4.992032 -17.692822
v 0.648571 4.364651 -21.902502
v 1.307521 3.763877 -22.269358
v 1.560672 2.911962 -22.614590
v 1.326339 1.921718 -22.877375
v 0.668991 1.026543 -22.969751
v 0.000000 0.494245 -22.817699
v 0.000000 4.383187 -22.064188
v 0.491598 3.866375 -23.121613
v 0.877467 3.514570 -23.336435
v 1.025708 3.015706 -23.538601
v 0.888486 2.435836 -23.692486
v 0.503555 1.911636 -23.746580
v 0.000000 1.599931 -23.657541
v 0.000000 4.019292 -22.892813
v 0.238222 3.733115 -23.923130
v 0.340609 3.517932 -24.151014
v 0.396282 3.201385 -24.290112
v 0.344950 2.841707 -24.370182
v 0.243814 2.494412 -24.319147
v 0.000000 2.417602 -24.318840
v 0.000000 3.770158 -23.889711
v 0.000000 3.238439 -24.499239
v 0.000000 3.523636 -24.334349
v 0.000000 2.900563 -24.533276
v -2.258395 -2.749689 9.402902
v -2.583769 0.046064 8.589347
v -2.663939 -3.136839 4.387044
v -2.187206 1.425852 6.794046
v -3.866441 0.380506 6.670557
v -3.500814 -2.395801 5.551081
v -3.577386 -2.433913 6.819909
v -4.654884 -1.415355 5.889756
v -4.413249 -1.870922 5.890654
v -4.444300 -1.886379 6.405169
v -4.685935 -1.430812 6.404271
v -2.648917 -0.684751 4.743352
v -2.525933 -0.773004 9.019170
v -3.754199 -1.405061 5.565550
v -3.830771 -1.443175 6.834378
v -4.534067 -1.643139 5.890204
v -4.565116 -1.658595 6.404720
v -1.211079 1.819042 7.153513
v -1.310913 -3.382792 9.193870
v -1.298781 -3.280168 5.893157
v -1.885352 -0.575379 9.696237
v -1.155059 -3.417283 11.364628
v -0.566769 -1.354374 11.295890
v -1.169471 -2.509896 11.381236
v -0.589708 -3.175625 12.628135
v -0.501071 -2.478851 12.606899
v -0.619364 -2.832809 12.630024
v -0.423310 -3.143871 12.953653
v -0.380925 -2.545521 12.935943
v -0.441427 -2.847725 12.951573
v -0.250593 -2.997988 13.101740
v -0.235536 -2.714904 13.093955
v -0.250074 -2.856891 13.098793
v -0.513595 1.490574 5.022234
v -2.451686 1.767338 5.099659
v -4.007583 -0.414321 5.580019
v -4.084156 -0.452436 6.848846
v -1.829013 0.589061 8.959044
v -4.330910 3.433202 7.062079
v -4.588315 3.227039 7.039937
v -4.153237 3.527957 7.130497
v -2.272331 0.597254 8.299777
v -2.591597 -1.237150 8.909939
v -1.906569 -1.440454 10.471363
v -1.342561 0.479728 9.407778
v -3.898645 0.303200 7.064763
v -2.277142 1.024751 8.019682
v -1.269685 1.430507 8.241199
v -4.599391 3.215579 7.115946
v -4.345858 3.356464 7.298628
v -4.181993 3.454712 7.340420
v -2.267172 1.155556 7.872036
v -4.226496 3.250699 7.177766
v -3.715724 0.511927 7.023975
v -1.448088 1.485433 8.052079
v -4.367316 3.173409 7.063234
v -4.121124 3.315619 7.217253
v -2.536368 -3.044942 7.324845
v -3.539100 -2.414856 6.185495
v -4.045869 -0.433378 6.214432
v -4.428775 -1.878651 6.147911
v -4.670409 -1.423083 6.147013
v -4.549592 -1.650867 6.147462
v -0.667577 1.612223 7.468493
v -1.318288 -3.245352 8.016017
v -3.882543 0.341853 6.867660
v -1.240382 1.624774 7.697357
v -4.593853 3.221310 7.077941
v -4.167615 3.491333 7.235458
v -4.338384 3.394833 7.180354
v -0.930228 1.236169 3.940171
v -2.197365 1.056048 3.940379
v -2.640545 -0.660801 3.693001
v -2.383073 -2.521080 3.546553
v -1.383144 -3.411942 4.318184
v -0.930403 3.206584 0.122389
v -2.540767 2.547678 0.034713
v -4.309195 0.244476 -0.393277
v -2.833039 -2.423143 -0.586879
v -1.433547 -3.274394 0.377425
v -0.968821 2.837104 -3.394725
v -2.479321 2.219059 -3.476964
v -4.212349 0.058686 -3.878413
v -2.753468 -2.443506 -4.060008
v -1.440763 -3.177941 -3.142699
v -0.819153 1.455622 -6.785895
v -1.829754 1.009689 -6.845985
v -2.870120 -0.376169 -7.100814
v -1.990738 -2.014609 -7.210582
v -1.080151 -3.197972 -6.743119
v -0.433128 -0.444957 -8.454660
v -0.681079 -0.610220 -8.555858
v -0.743565 -0.812776 -8.653028
v -0.697771 -1.135939 -8.762381
v -0.469603 -1.425746 -8.750216
v -0.506094 -2.556590 12.490263
v -0.616949 -2.811164 12.508065
v -0.605429 -3.057161 12.506570
v -0.510523 0.255859 -9.361553
v -0.939165 -0.063213 -9.457920
v -1.088226 -0.481049 -9.602299
v -0.971538 -0.989162 -9.770747
v -0.549949 -1.444981 -9.892552
v -0.828407 2.163019 -12.878427
v -1.625749 1.499652 -13.003058
v -1.955031 0.623992 -13.263412
v -1.695666 -0.370979 -13.608260
v -0.897809 -1.224831 -13.935540
v -1.054208 3.661005 -15.190424
v -2.187874 2.528761 -15.464120
v -2.671321 1.356164 -15.820233
v -2.257508 0.131862 -16.236164
v -1.116493 -1.144892 -16.678316
v -1.011718 4.397895 -17.891363
v -2.126075 3.253283 -18.229198
v -2.606066 2.051691 -18.618633
v -2.184273 0.790181 -19.027683
v -1.063783 -0.531872 -19.424858
v -0.648571 4.364651 -21.902502
v -1.307520 3.763877 -22.269358
v -1.560672 2.911962 -22.614590
v -1.326338 1.921718 -22.877375
v -0.668990 1.026543 -22.969751
v -0.491597 3.866375 -23.121613
v -0.877467 3.514570 -23.336435
v -1.025708 3.015706 -23.538601
v -0.888486 2.435836 -23.692486
v -0.503554 1.911636 -23.746580
v -0.238221 3.733115 -23.923130
v -0.340608 3.517932 -24.151014
v -0.396282 3.201385 -24.290112
v -0.344950 2.841707 -24.370182
v -0.243814 2.494412 -24.319147
v -2.274970 -0.069109 9.043872
v -2.261405 -0.231073 8.873898
v -2.452893 -0.222571 9.053883
v -2.363910 -0.086987 9.260846
v -2.117427 -0.011694 9.208771
v -2.054075 -0.100744 8.969624
v -1.867501 -0.243306 8.982800
v -1.786510 -0.442340 9.078368
v -1.970006 -0.099220 9.369748
v -2.202967 -0.454183 8.827912
v -2.121976 -0.653217 8.923480
v -2.512801 -0.440426 9.119134
v -2.431811 -0.639463 9.214703
v -2.368824 -0.221047 9.454007
v -2.287833 -0.420084 9.549576
v -2.151875 -0.608069 9.511046
v -1.889015 -0.298256 9.465317
v -2.240858 -0.743651 9.304084
v -1.905392 -0.532774 9.458972
v -1.842040 -0.621824 9.219825
v -2.012879 -0.713200 9.353137
v -2.049369 -0.752153 9.124099
vn 0.3444 0.8463 -0.4064
vn 0.2935 0.3439 -0.8919
vn 0.1455 -0.1947 -0.9700
vn -0.0470 -0.6678 -0.7429
vn -0.2263 -0.9334 -0.2786
vn -0.3444 -0.8463 0.4064
vn 0.8553 0.3689 -0.3639
vn 0.9675 -0.1582 -0.1974
vn 0.7750 -0.6313 0.0298
vn 0.3355 -0.9084 0.2494
vn 0.5942 0.7666 0.2432
vn 0.5855 0.4238 0.6911
vn 0.3930 -0.0493 0.9182
vn 0.0745 -0.5107 0.8565
vn -0.1289 0.9875 0.0905
vn -0.4726 0.7470 0.4675
vn -0.6651 0.2740 0.6947
vn -0.6486 -0.2898 0.7038
vn -0.3147 0.7263 -0.6111
vn -0.7446 0.3648 -0.5591
vn -0.9371 -0.1083 -0.3319
vn -0.8345 -0.5510 0.0022
vn 0.6391 -0.5757 0.5100
vn 0.9584 0.2072 -0.1965
vn 0.6335 -0.6828 -0.3638
vn 0.1207 0.8101 -0.5738
vn -0.0000 -0.9997 -0.0259
vn -0.0000 0.9878 -0.1560
vn -0.0000 -0.9991 0.0417
vn -0.0000 0.8447 0.5352
vn 0.9109 0.2883 -0.2951
vn 0.7166 -0.5505 -0.4283
vn 0.6956 -0.6625 0.2781
vn 0.8678 0.0011 -0.4969
vn 0.6596 -0.5507 -0.5116
vn 0.7143 -0.5779 0.3948
vn 0.9212 -0.0255 0.3882
vn 0.8611 0.0670 -0.5040
vn 0.8458 0.0880 0.5261
vn 0.4503 -0.1118 -0.8858
vn 0.6695 -0.1916 0.7177
vn 0.7153 -0.3806 -0.5861
vn 0.7792 -0.4123 0.4721
vn -0.2342 0.9701 -0.0631
vn 0.6243 -0.7715 0.1231
vn 0.4148 -0.9096 0.0253
vn 0.7199 0.4134 0.5575
vn -0.0000 -0.9709 0.2397
vn -0.0000 0.6714 0.7411
vn 0.7662 -0.5854 0.2650
vn 0.4008 0.5682 0.7187
vn 0.8928 0.0823 0.4428
vn -0.0000 -0.9442 -0.3293
vn -0.0000 0.9840 -0.1780
vn 0.7135 -0.6964 -0.0776
vn 0.5609 0.8242 -0.0781
vn 0.9656 0.1176 0.2318
vn -0.0000 -0.8754 0.4833
vn -0.0000 0.8538 0.5206
vn 0.5776 -0.5706 0.5837
vn 0.4815 0.6710 0.5639
vn 0.7702 0.0641 0.6345
vn -0.0000 -0.3575 0.9339
vn -0.0000 0.3393 0.9407
vn 0.3093 -0.2303 0.9226
vn 0.2860 0.3094 0.9069
vn 0.3472 0.0441 0.9368
vn 0.4453 0.8943 -0.0443
vn 0.4315 0.8717 -0.2323
vn 0.7689 0.2628 -0.5829
vn 0.8975 0.1652 0.4089
vn 0.1356 0.9566 0.2578
vn 0.3602 0.7311 -0.5794
vn 0.7153 0.3591 -0.5996
vn -0.0718 0.9477 -0.3110
vn -0.0000 0.0033 1.0000
vn 0.6264 0.5147 0.5854
vn 0.8739 0.0462 0.4839
vn 0.7723 0.1369 0.6203
vn 0.4574 0.6342 0.6234
vn 0.8310 0.0892 0.5491
vn 0.4938 0.5700 0.6567
vn -0.0899 0.7625 0.6407
vn 0.8261 0.1488 0.5435
vn 0.4673 0.0455 0.8829
vn 0.1420 0.4677 0.8724
vn 0.4523 0.3757 0.8089
vn 0.2325 -0.4605 0.8567
vn 0.3211 0.2633 0.9097
vn 0.6453 -0.0258 0.7635
vn 0.1247 -0.3633 0.9233
vn 0.3097 -0.4913 0.8141
vn 0.3869 -0.9171 0.0964
vn -0.0000 0.9934 0.1143
vn -0.0000 -0.9995 0.0304
vn 0.4995 -0.8645 -0.0561
vn 0.9181 0.3941 -0.0430
vn 0.7239 -0.6869 -0.0643
vn 0.9975 0.0390 -0.0590
vn 0.8814 -0.4676 -0.0672
vn 0.2799 0.9358 0.2143
vn 0.4834 -0.8752 0.0199
vn 0.9966 0.0063 -0.0825
vn -0.3189 0.8869 0.3342
vn 0.9289 0.3616 -0.0802
vn 0.0375 0.9454 0.3237
vn 0.5686 0.7949 0.2118
vn 0.2585 0.9656 0.0271
vn 0.7335 0.6793 -0.0235
vn 0.9893 -0.0114 0.1457
vn 0.8780 -0.4526 -0.1559
vn 0.4668 -0.8840 -0.0260
vn -0.0000 -0.9998 0.0200
vn -0.0000 0.9992 0.0411
vn 0.4126 0.8891 0.1983
vn 0.5896 0.7945 0.1453
vn 0.9883 0.0816 0.1285
vn 0.7361 -0.6748 0.0523
vn 0.5890 -0.8081 -0.0075
vn -0.0000 -0.9998 -0.0214
vn -0.0000 0.9864 0.1643
vn 0.4090 0.8833 -0.2290
vn 0.5716 0.7906 -0.2194
vn 0.9733 0.0934 -0.2096
vn 0.7153 -0.6893 -0.1148
vn 0.5402 -0.8408 -0.0349
vn -0.0000 -0.9984 -0.0574
vn -0.0000 0.9633 -0.2683
vn 0.3103 0.7505 -0.5836
vn 0.4695 0.6781 -0.5654
vn 0.8065 0.0878 -0.5846
vn 0.6859 -0.5027 -0.5262
vn 0.4993 -0.7598 -0.4164
vn -0.0000 -0.9454 -0.3260
vn -0.0000 0.7973 -0.6035
vn 0.3383 0.9279 -0.1565
vn 0.7283 0.6388 -0.2481
vn 0.9638 0.0900 -0.2509
vn 0.8887 -0.3730 -0.2666
vn 0.5355 -0.7532 -0.3821
vn -0.0000 -0.9214 -0.3886
vn -0.0000 0.9806 -0.1962
vn 0.6837 0.6942 0.2251
vn 0.9499 0.1839 0.2528
vn -0.0000 0.9951 0.0991
vn 0.8271 -0.5450 0.1374
vn -0.0000 -0.9832 -0.1825
vn 0.4592 0.7221 0.5174
vn 0.7852 0.4519 0.4234
vn 0.9628 -0.0262 0.2689
vn 0.8604 -0.4949 0.1214
vn 0.5873 -0.8082 0.0446
vn -0.0000 -0.9995 0.0322
vn -0.0000 0.8215 0.5702
vn 0.4976 0.7304 0.4679
vn 0.7940 0.4784 0.3750
vn 0.9702 -0.0196 0.2416
vn 0.8541 -0.5127 0.0878
vn 0.5970 -0.8021 0.0134
vn -0.0000 -1.0000 0.0086
vn -0.0000 0.8361 0.5486
vn 0.5961 0.7207 0.3539
vn 0.8318 0.4914 0.2580
vn 0.9930 0.0027 0.1184
vn 0.8686 -0.4948 -0.0256
vn 0.6491 -0.7575 -0.0696
vn -0.0000 -0.9952 -0.0976
vn -0.0000 0.9014 0.4329
vn 0.6206 0.7809 0.0707
vn 0.8361 0.5484 0.0124
vn 0.9909 0.0652 -0.1175
vn 0.8787 -0.4233 -0.2209
vn 0.6758 -0.6866 -0.2681
vn -0.0000 -0.9383 -0.3459
vn -0.0000 0.9937 0.1118
vn 0.3766 0.9022 -0.2102
vn 0.7497 0.6091 -0.2587
vn 0.9258 0.1387 -0.3516
vn 0.8381 -0.3146 -0.4457
vn 0.5611 -0.6067 -0.5631
vn -0.0000 -0.8084 -0.5886
vn -0.0000 0.9566 -0.2914
vn 0.3536 0.8740 -0.3334
vn 0.6878 0.5938 -0.4175
vn 0.8276 0.1826 -0.5308
vn 0.7536 -0.2175 -0.6203
vn 0.4681 -0.5204 -0.7142
vn -0.0000 -0.6254 -0.7803
vn -0.0000 0.9395 -0.3425
vn 0.3237 0.8629 -0.3881
vn 0.5518 0.5755 -0.6035
vn 0.6368 0.2484 -0.7299
vn 0.5870 -0.0871 -0.8049
vn 0.3894 -0.4329 -0.8130
vn -0.0000 -0.5497 -0.8353
vn -0.0000 0.9410 -0.3383
vn -0.0000 0.3092 -0.9510
vn -0.0000 0.6475 -0.7620
vn -0.0000 -0.0886 -0.9961
vn -0.6391 -0.5757 0.5100
vn -0.9584 0.2072 -0.1965
vn -0.6335 -0.6828 -0.3638
vn -0.1207 0.8101 -0.5738
vn -0.9109 0.2883 -0.2951
vn -0.7166 -0.5505 -0.4283
vn -0.6956 -0.6625 0.2781
vn -0.8678 0.0011 -0.4969
vn -0.6596 -0.5507 -0.5116
vn -0.7143 -0.5779 0.3948
vn -0.9212 -0.0255 0.3882
vn -0.8611 0.0670 -0.5040
vn -0.8458 0.0880 0.5261
vn -0.4503 -0.1118 -0.8858
vn -0.6695 -0.1916 0.7177
vn -0.7153 -0.3806 -0.5861
vn -0.7792 -0.4123 0.4721
vn 0.2342 0.9701 -0.0631
vn -0.6243 -0.7715 0.1231
vn -0.4148 -0.9096 0.0253
vn -0.7199 0.4134 0.5575
vn -0.7662 -0.5854 0.2650
vn -0.4008 0.5682 0.7187
vn -0.8928 0.0823 0.4428
vn -0.7135 -0.6964 -0.0776
vn -0.5609 0.8242 -0.0781
vn -0.9656 0.1176 0.2318
vn -0.5776 -0.5706 0.5837
vn -0.4815 0.6710 0.5639
vn -0.7702 0.0641 0.6345
vn -0.3093 -0.2303 0.9226
vn -0.2860 0.3094 0.9069
vn -0.3472 0.0441 0.9368
vn -0.4453 0.8943 -0.0443
vn -0.4315 0.8717 -0.2323
vn -0.7689 0.2628 -0.5829
vn -0.8975 0.1652 0.4089
vn -0.1356 0.9566 0.2578
vn -0.3602 0.7311 -0.5794
vn -0.7153 0.3591 -0.5996
vn 0.0718 0.9477 -0.3110
vn -0.6264 0.5147 0.5854
vn -0.8739 0.0462 0.4839
vn -0.7723 0.1369 0.6203
vn -0.4574 0.6342 0.6234
vn -0.8310 0.0892 0.5491
vn -0.4938 0.5700 0.6567
vn 0.0899 0.7625 0.6407
vn -0.8261 0.1488 0.5435
vn -0.4673 0.0455 0.8829
vn -0.1420 0.4677 0.8724
vn -0.4523 0.3757 0.8089
vn -0.2325 -0.4605 0.8567
vn -0.3211 0.2633 0.9097
vn -0.6453 -0.0258 0.7635
vn -0.1247 -0.3633 0.9233
vn -0.3097 -0.4913 0.8141
vn -0.3869 -0.9171 0.0964
vn -0.4995 -0.8645 -0.0561
vn -0.9181 0.3941 -0.0430
vn -0.7239 -0.6869 -0.0643
vn -0.9975 0.0390 -0.0590
vn -0.8814 -0.4676 -0.0672
vn -0.2799 0.9358 0.2143
vn -0.4834 -0.8752 0.0199
vn -0.9966 0.0063 -0.0825
vn 0.3189 0.8869 0.3342
vn -0.9289 0.3616 -0.0802
vn -0.0375 0.9454 0.3238
vn -0.5686 0.7949 0.2118
vn -0.2585 0.9656 0.0271
vn -0.7335 0.6793 -0.0235
vn -0.9893 -0.0114 0.1457
vn -0.8780 -0.4526 -0.1559
vn -0.4668 -0.8840 -0.0260
vn -0.4126 0.8891 0.1983
vn -0.5896 0.7945 0.1453
vn -0.9883 0.0816 0.1285
vn -0.7361 -0.6748 0.0523
vn -0.5890 -0.8081 -0.0075
vn -0.4090 0.8833 -0.2290
vn -0.5716 0.7906 -0.2194
vn -0.9733 0.0934 -0.2096
vn -0.7153 -0.6893 -0.1148
vn -0.5402 -0.8408 -0.0349
vn -0.3103 0.7505 -0.5836
vn -0.4695 0.6781 -0.5654
vn -0.8065 0.0878 -0.5846
vn -0.6859 -0.5027 -0.5262
vn -0.4993 -0.7598 -0.4164
vn -0.3383 0.9279 -0.1565
vn -0.7283 0.6388 -0.2481
vn -0.9638 0.0900 -0.2509
vn -0.8887 -0.3730 -0.2666
vn -0.5355 -0.7532 -0.3821
vn -0.6837 0.6942 0.2251
vn -0.9499 0.1839 0.2528
vn -0.8271 -0.5450 0.1374
vn -0.4592 0.7221 0.5174
vn -0.7852 0.4519 0.4234
vn -0.9628 -0.0262 0.2689
vn -0.8604 -0.4949 0.1214
vn -0.5873 -0.8082 0.0446
vn -0.4976 0.7304 0.4679
vn -0.7940 0.4784 0.3750
vn -0.9702 -0.0196 0.2416
vn -0.8541 -0.5127 0.0878
vn -0.5970 -0.8021 0.0134
vn -0.5961 0.7207 0.3539
vn -0.8318 0.4914 0.2580
vn -0.9930 0.0027 0.1184
vn -0.8686 -0.4948 -0.0256
vn -0.6491 -0.7575 -0.0696
vn -0.6206 0.7809 0.0707
vn -0.8361 0.5484 0.0124
vn -0.9909 0.0652 -0.1175
vn -0.8787 -0.4233 -0.2209
vn -0.6758 -0.6866 -0.2681
vn -0.3766 0.9022 -0.2102
vn -0.7497 0.6091 -0.2587
vn -0.9258 0.1387 -0.3516
vn -0.8381 -0.3146 -0.4457
vn -0.5611 -0.6067 -0.5631
vn -0.3536 0.8740 -0.3334
vn -0.6878 0.5938 -0.4175
vn -0.8276 0.1826 -0.5308
vn -0.7536 -0.2175 -0.6203
vn -0.4681 -0.5204 -0.7142
vn -0.3237 0.8629 -0.3881
vn -0.5518 0.5755 -0.6035
vn -0.6368 0.2484 -0.7299
vn -0.5870 -0.0871 -0.8049
vn -0.3894 -0.4329 -0.8130
vn -0.3444 0.8463 -0.4064
vn -0.2935 0.3439 -0.8919
vn -0.8553 0.3689 -0.3639
vn -0.5942 0.7666 0.2432
vn 0.1289 0.9875 0.0905
vn 0.3147 0.7263 -0.6111
vn 0.7446 0.3648 -0.5591
vn 0.9371 -0.1083 -0.3319
vn 0.4726 0.7470 0.4675
vn -0.1455 -0.1947 -0.9700
vn 0.0470 -0.6678 -0.7429
vn -0.9675 -0.1582 -0.1974
vn -0.7750 -0.6313 0.0298
vn -0.5855 0.4238 0.6911
vn -0.3930 -0.0493 0.9182
vn -0.0745 -0.5107 0.8565
vn 0.6651 0.2740 0.6947
vn -0.3355 -0.9084 0.2494
vn 0.6486 -0.2898 0.7038
vn 0.8345 -0.5510 0.0022
vn 0.3444 -0.8463 0.4064
vn 0.2263 -0.9334 -0.2786
vt 0.500000 0.000000
vt 0.600000 0.200000
vt 0.400000 0.200000
vt 0.600000 0.400000
vt 0.400000 0.600000
vt 0.400000 0.400000
vt 0.600000 0.800000
vt 0.500000 1.000000
vt 0.400000 0.800000
vt 0.600000 0.600000
vt 0.300000 0.000000
vt 0.200000 0.200000
vt 0.200000 0.400000
vt 0.300000 1.000000
vt 0.200000 0.800000
vt 0.200000 0.600000
vt 0.100000 0.000000
vt 0.000000 0.200000
vt 0.000000 0.400000
vt 0.100000 1.000000
vt 0.000000 0.800000
vt 0.000000 0.600000
vt 0.900000 0.000000
vt 1.000000 0.200000
vt 0.800000 0.200000
vt 1.000000 0.600000
vt 0.800000 0.400000
vt 1.000000 0.400000
vt 1.000000 0.800000
vt 0.900000 1.000000
vt 0.800000 0.800000
vt 0.800000 0.600000
vt 0.700000 0.000000
vt 0.700000 1.000000
vt 0.250000 0.500000
vt 0.319479 0.500000
vt 0.500000 0.750000
vt 0.375000 0.750000
vt 0.500000 0.750000
vt 0.319479 0.625000
vt 0.319479 0.750000
vt 0.680521 0.625000
vt 0.750000 0.750000
vt 0.622954 0.750000
vt 0.375000 0.625000
vt 0.375000 0.500000
vt 0.625398 0.713291
vt 0.625000 0.711417
vt 0.626766 0.719731
vt 0.500000 0.500000
vt 0.625000 0.500000
vt 0.500000 0.625000
vt 0.625000 0.750000
vt 0.625000 0.625000
vt 0.625000 0.625000
vt 0.680521 0.500000
vt 0.750000 0.500000
vt 0.680521 0.500000
vt 0.672441 0.511736
vt 0.625000 0.512460
vt 0.250000 0.750000
vt 0.250000 0.625000
vt 0.680521 0.750000
vt 0.500000 0.750000
vt 0.630143 0.735623
vt 0.631077 0.735674
vt 0.682035 0.750000
vt 0.500000 0.750000
vt 0.681216 0.750000
vt 0.319479 0.750000
vt 0.250000 0.750000
vt 0.250000 0.750000
vt 0.625000 0.623690
vt 0.625000 0.535963
vt 0.671448 0.737894
vt 0.671944 0.624815
vt 0.642216 0.736287
vt 0.617756 0.734941
vt 0.665850 0.737586
vt 0.627571 0.624041
vt 0.625000 0.623690
vt 0.000000 0.000000
vt 0.619215 0.750000
vt 0.516222 0.750000
vt 0.517082 0.750000
vt 0.653892 0.750000
vt 0.750000 0.625000
vt 0.500000 0.500000
vt 0.625000 0.500000
vt 0.305687 0.500000
vt 0.605823 0.500000
vt 0.500000 0.500000
vt 0.680521 0.500000
vt 0.375000 0.500000
vt 0.579500 0.500000
vt 0.680521 0.500000
s 1
usemtl oeil
f 6/1/6 5/2/5 10/3/10
f 4/4/4 8/5/8 9/6/9
f 2/7/2 1/8/1 7/9/7
f 5/2/5 9/6/9 10/3/10
f 2/7/2 8/5/8 3/10/3
f 6/11/6 10/3/10 14/12/14
f 8/5/8 13/13/13 9/6/9
f 7/9/7 1/14/1 11/15/11
f 10/3/10 13/13/13 14/12/14
f 7/9/7 12/16/12 8/5/8
f 6/17/6 14/12/14 18/18/18
f 12/16/12 17/19/17 13/13/13
f 11/15/11 1/20/1 15/21/15
f 13/13/13 18/18/18 14/12/14
f 12/16/12 15/21/15 16/22/16
f 6/23/6 18/24/18 22/25/22
f 16/26/16 21/27/21 17/28/17
f 15/29/15 1/30/1 19/31/19
f 18/24/18 21/27/21 22/25/22
f 15/29/15 20/32/20 16/26/16
f 6/33/6 22/25/22 5/2/5
f 21/27/21 3/10/3 4/4/4
f 19/31/19 1/34/1 2/7/2
f 21/27/21 5/2/5 22/25/22
f 20/32/20 2/7/2 3/10/3
f 4/4/4 3/10/3 8/5/8
f 5/2/5 4/4/4 9/6/9
f 2/7/2 7/9/7 8/5/8
f 8/5/8 12/16/12 13/13/13
f 10/3/10 9/6/9 13/13/13
f 7/9/7 11/15/11 12/16/12
f 12/16/12 16/22/16 17/19/17
f 13/13/13 17/19/17 18/18/18
f 12/16/12 11/15/11 15/21/15
f 16/26/16 20/32/20 21/27/21
f 18/24/18 17/28/17 21/27/21
f 15/29/15 19/31/19 20/32/20
f 21/27/21 20/32/20 3/10/3
f 21/27/21 4/4/4 5/2/5
f 20/32/20 19/31/19 2/7/2
f 338/31/338 334/7/334 333/34/333
f 334/7/334 335/9/335 333/8/333
f 335/9/335 336/15/336 333/14/333
f 336/15/336 337/21/337 333/20/333
f 337/29/337 338/31/338 333/30/333
f 339/32/339 334/7/334 338/31/338
f 337/29/337 339/32/339 338/31/338
f 340/27/340 342/10/342 339/32/339
f 341/26/341 340/27/340 339/32/339
f 337/29/337 341/26/341 339/32/339
f 339/32/339 342/10/342 334/7/334
f 334/7/334 342/10/342 344/5/344
f 343/4/343 344/5/344 342/10/342
f 340/27/340 343/4/343 342/10/342
f 334/7/334 344/5/344 335/9/335
f 335/9/335 344/5/344 346/16/346
f 344/5/344 345/6/345 347/13/347
f 343/4/343 345/6/345 344/5/344
f 344/5/344 347/13/347 346/16/346
f 346/16/346 347/13/347 349/19/349
f 347/13/347 348/12/348 351/18/351
f 350/3/350 348/12/348 347/13/347
f 350/3/350 347/13/347 345/6/345
f 347/13/347 351/18/351 349/19/349
f 351/24/351 340/27/340 349/28/349
f 353/17/353 351/18/351 348/12/348
f 351/24/351 352/25/352 340/27/340
f 353/23/353 352/25/352 351/24/351
f 353/33/353 354/2/354 352/25/352
f 353/1/353 350/3/350 354/2/354
f 353/11/353 348/12/348 350/3/350
f 340/27/340 354/2/354 343/4/343
f 354/2/354 345/6/345 343/4/343
f 354/2/354 350/3/350 345/6/345
f 340/27/340 352/25/352 354/2/354
f 346/16/346 349/19/349 341/22/341
f 341/26/341 349/28/349 340/27/340
f 346/16/346 337/21/337 336/15/336
f 335/9/335 346/16/346 336/15/336
f 346/16/346 341/22/341 337/21/337
usemtl fourrure_corps
f 113/35/113 46/36/46 27/35/27
f 78/37/78 33/38/33 41/39/41
f 102/40/102 23/38/23 45/41/45
f 101/42/101 30/43/30 80/44/80
f 41/39/41 36/38/36 43/39/43
f 93/45/93 32/46/32 96/45/96
f 89/47/89 84/48/84 91/49/91
f 38/50/38 70/51/70 40/50/40
f 100/52/100 37/53/37 43/39/43
f 96/45/96 35/46/35 98/45/98
f 97/54/97 37/53/37 99/55/99
f 40/50/40 34/51/34 42/50/42
f 40/50/40 35/46/35 32/46/32
f 98/45/98 43/39/43 36/38/36
f 38/50/38 32/46/32 25/46/25
f 41/39/41 37/53/37 71/53/71
f 108/56/108 28/57/28 68/58/68
f 111/46/111 38/50/38 25/46/25
f 79/39/79 23/38/23 78/37/78
f 75/59/75 26/60/26 44/59/44
f 102/40/102 29/61/29 95/62/95
f 38/50/38 109/51/109 69/51/69
f 45/41/45 48/61/48 29/61/29
f 52/64/52 45/41/45 79/39/79
f 82/65/82 89/47/89 87/66/87
f 143/67/143 57/37/57 144/68/144
f 145/43/145 56/69/56 143/67/143
f 146/70/146 57/37/57 55/70/55
f 147/71/147 55/70/55 53/72/53
f 26/60/26 68/58/68 44/59/44
f 103/73/103 71/53/71 97/54/97
f 81/48/81 77/53/77 71/53/71
f 31/74/31 69/51/69 26/60/26
f 83/75/83 77/53/77 82/65/82
f 44/59/44 101/42/101 104/76/104
f 106/76/106 44/59/44 104/76/104
f 92/77/92 85/65/85 86/75/86
f 26/60/26 74/74/74 31/74/31
f 91/49/91 85/65/85 88/78/88
f 90/79/90 82/65/82 87/66/87
f 86/75/86 107/80/107 106/76/106
f 74/74/74 107/80/107 105/81/105
f 90/79/90 86/75/86 83/75/83
f 86/75/86 104/76/104 83/75/83
f 31/74/31 105/81/105 103/73/103
f 112/36/112 25/46/25 46/36/46
f 84/48/84 107/80/107 85/65/85
f 75/59/75 107/80/107 73/60/73
f 83/75/83 101/42/101 80/44/80
f 31/74/31 97/54/97 70/51/70
f 27/35/27 102/40/102 95/62/95
f 35/46/35 100/52/100 98/45/98
f 97/54/97 34/51/34 70/51/70
f 96/45/96 36/38/36 33/38/33
f 42/50/42 99/55/99 100/52/100
f 93/45/93 33/38/33 23/38/23
f 68/58/68 94/87/94 101/42/101
f 46/36/46 93/45/93 102/40/102
f 120/35/120 112/36/112 113/35/113
f 119/36/119 111/46/111 112/36/112
f 117/50/117 109/51/109 110/88/110
f 118/46/118 110/88/110 111/46/111
f 115/58/115 114/57/114 108/56/108
f 121/57/121 122/58/122 128/57/128
f 119/36/119 127/35/127 126/36/126
f 116/51/116 122/58/122 115/58/115
f 118/46/118 126/36/126 125/46/125
f 117/50/117 123/89/123 116/51/116
f 118/46/118 124/50/124 117/50/117
f 133/90/133 125/46/125 126/36/126
f 124/50/124 130/91/130 123/89/123
f 125/46/125 131/92/131 124/50/124
f 122/58/122 135/57/135 128/57/128
f 134/35/134 126/36/126 127/35/127
f 133/90/133 141/35/141 140/36/140
f 130/91/130 136/58/136 129/93/129
f 132/94/132 140/36/140 139/46/139
f 131/92/131 137/95/137 130/91/130
f 132/94/132 138/50/138 131/92/131
f 129/93/129 142/57/142 135/57/135
f 48/61/48 146/70/146 147/71/147
f 52/64/52 146/70/146 50/41/50
f 49/43/49 143/67/143 51/63/51
f 52/64/52 143/67/143 144/68/144
f 84/48/84 103/73/103 105/81/105
f 123/89/123 129/93/129 122/58/122
f 69/51/69 108/56/108 68/58/68
f 116/51/116 108/56/108 109/51/109
f 113/35/113 112/36/112 46/36/46
f 78/37/78 23/38/23 33/38/33
f 102/40/102 93/45/93 23/38/23
f 101/42/101 94/87/94 30/43/30
f 41/39/41 33/38/33 36/38/36
f 93/45/93 25/46/25 32/46/32
f 89/47/89 81/48/81 84/48/84
f 38/50/38 69/51/69 70/51/70
f 100/52/100 99/55/99 37/53/37
f 96/45/96 32/46/32 35/46/35
f 97/54/97 71/53/71 37/53/37
f 40/50/40 70/51/70 34/51/34
f 40/50/40 42/50/42 35/46/35
f 98/45/98 100/52/100 43/39/43
f 38/50/38 40/50/40 32/46/32
f 41/39/41 43/39/43 37/53/37
f 108/56/108 114/57/114 28/57/28
f 111/46/111 110/88/110 38/50/38
f 79/39/79 45/41/45 23/38/23
f 75/59/75 73/60/73 26/60/26
f 102/40/102 45/41/45 29/61/29
f 38/50/38 110/88/110 109/51/109
f 51/63/51 52/64/52 79/39/79
f 45/41/45 50/41/50 48/61/48
f 52/64/52 50/41/50 45/41/45
f 82/65/82 81/48/81 89/47/89
f 143/67/143 56/69/56 57/37/57
f 145/43/145 54/43/54 56/69/56
f 146/70/146 144/68/144 57/37/57
f 147/71/147 146/70/146 55/70/55
f 26/60/26 69/51/69 68/58/68
f 103/73/103 81/48/81 71/53/71
f 81/48/81 82/65/82 77/53/77
f 31/74/31 70/51/70 69/51/69
f 83/75/83 80/44/80 77/53/77
f 44/59/44 68/58/68 101/42/101
f 106/76/106 75/59/75 44/59/44
f 92/77/92 88/78/88 85/65/85
f 26/60/26 73/60/73 74/74/74
f 91/49/91 84/48/84 85/65/85
f 90/79/90 83/75/83 82/65/82
f 86/75/86 85/65/85 107/80/107
f 74/74/74 73/60/73 107/80/107
f 90/79/90 92/77/92 86/75/86
f 86/75/86 106/76/106 104/76/104
f 31/74/31 74/74/74 105/81/105
f 112/36/112 111/46/111 25/46/25
f 84/48/84 105/81/105 107/80/107
f 75/59/75 106/76/106 107/80/107
f 83/75/83 104/76/104 101/42/101
f 31/74/31 103/73/103 97/54/97
f 27/35/27 46/36/46 102/40/102
f 35/46/35 42/50/42 100/52/100
f 97/54/97 99/55/99 34/51/34
f 96/45/96 98/45/98 36/38/36
f 42/50/42 34/51/34 99/55/99
f 93/45/93 96/45/96 33/38/33
f 68/58/68 28/57/28 94/87/94
f 46/36/46 25/46/25 93/45/93
f 120/35/120 119/36/119 112/36/112
f 119/36/119 118/46/118 111/46/111
f 117/50/117 116/51/116 109/51/109
f 118/46/118 117/50/117 110/88/110
f 115/58/115 121/57/121 114/57/114
f 121/57/121 115/58/115 122/58/122
f 119/36/119 120/35/120 127/35/127
f 116/51/116 123/89/123 122/58/122
f 118/46/118 119/36/119 126/36/126
f 117/50/117 124/50/124 123/89/123
f 118/46/118 125/46/125 124/50/124
f 133/90/133 132/94/132 125/46/125
f 124/50/124 131/92/131 130/91/130
f 125/46/125 132/94/132 131/92/131
f 122/58/122 129/93/129 135/57/135
f 134/35/134 133/90/133 126/36/126
f 133/90/133 134/35/134 141/35/141
f 130/91/130 137/95/137 136/58/136
f 132/94/132 133/90/133 140/36/140
f 131/92/131 138/50/138 137/95/137
f 132/94/132 139/46/139 138/50/138
f 129/93/129 136/58/136 142/57/142
f 48/61/48 50/41/50 146/70/146
f 52/64/52 144/68/144 146/70/146
f 49/43/49 145/43/145 143/67/143
f 52/64/52 51/63/51 143/67/143
f 84/48/84 81/48/81 103/73/103
f 123/89/123 130/91/130 129/93/129
f 69/51/69 109/51/109 108/56/108
f 116/51/116 115/58/115 108/56/108
f 113/35/113 27/35/27 219/36/219
f 242/37/242 214/39/214 206/38/206
f 264/40/264 218/41/218 200/38/200
f 263/42/263 244/44/244 30/43/30
f 214/39/214 216/39/216 209/38/209
f 257/45/257 258/45/258 205/46/205
f 253/47/253 255/49/255 248/48/248
f 211/50/211 213/50/213 235/51/235
f 262/52/262 216/39/216 210/53/210
f 258/45/258 260/45/260 208/46/208
f 259/54/259 261/55/261 210/53/210
f 213/50/213 215/50/215 207/51/207
f 213/50/213 205/46/205 208/46/208
f 260/45/260 209/38/209 216/39/216
f 211/50/211 202/46/202 205/46/205
f 214/39/214 236/53/236 210/53/210
f 270/56/270 233/58/233 28/57/28
f 273/46/273 202/46/202 211/50/211
f 243/39/243 242/37/242 200/38/200
f 240/59/240 217/59/217 203/60/203
f 264/40/264 95/62/95 29/61/29
f 211/50/211 234/51/234 271/51/271
f 218/41/218 29/61/29 48/61/48
f 223/64/223 243/39/243 218/41/218
f 246/65/246 251/66/251 253/47/253
f 295/67/295 296/68/296 226/37/226
f 145/43/145 295/67/295 225/69/225
f 297/70/297 224/70/224 226/37/226
f 147/71/147 53/72/53 224/70/224
f 203/60/203 217/59/217 233/58/233
f 265/73/265 259/54/259 236/53/236
f 245/48/245 236/53/236 241/53/241
f 204/74/204 203/60/203 234/51/234
f 247/75/247 246/65/246 241/53/241
f 217/59/217 266/76/266 263/42/263
f 268/76/268 266/76/266 217/59/217
f 256/77/256 250/75/250 249/65/249
f 203/60/203 204/74/204 239/74/239
f 255/49/255 252/78/252 249/65/249
f 254/79/254 251/66/251 246/65/246
f 250/75/250 268/76/268 269/80/269
f 239/74/239 267/81/267 269/80/269
f 254/79/254 247/75/247 250/75/250
f 250/75/250 247/75/247 266/76/266
f 204/74/204 265/73/265 267/81/267
f 274/36/274 219/36/219 202/46/202
f 248/48/248 249/65/249 269/80/269
f 240/59/240 238/60/238 269/80/269
f 247/75/247 244/44/244 263/42/263
f 204/74/204 235/51/235 259/54/259
f 27/35/27 95/62/95 264/40/264
f 208/46/208 260/45/260 262/52/262
f 259/54/259 235/51/235 207/51/207
f 258/45/258 206/38/206 209/38/209
f 215/50/215 262/52/262 261/55/261
f 257/45/257 200/38/200 206/38/206
f 233/58/233 263/42/263 94/87/94
f 219/36/219 264/40/264 257/45/257
f 120/35/120 113/35/113 274/36/274
f 279/36/279 274/36/274 273/46/273
f 277/50/277 272/88/272 271/51/271
f 278/46/278 273/46/273 272/88/272
f 275/58/275 270/56/270 114/57/114
f 121/57/121 128/57/128 280/58/280
f 279/36/279 284/36/284 127/35/127
f 276/51/276 275/58/275 280/58/280
f 278/46/278 283/46/283 284/36/284
f 277/50/277 276/51/276 281/89/281
f 278/46/278 277/50/277 282/50/282
f 289/90/289 284/36/284 283/46/283
f 282/50/282 281/89/281 286/91/286
f 283/46/283 282/50/282 287/92/287
f 280/58/280 128/57/128 135/57/135
f 134/35/134 127/35/127 284/36/284
f 289/90/289 294/36/294 141/35/141
f 286/91/286 285/93/285 290/58/290
f 288/94/288 293/46/293 294/36/294
f 287/92/287 286/91/286 291/95/291
f 288/94/288 287/92/287 292/50/292
f 285/93/285 135/57/135 142/57/142
f 48/61/48 147/71/147 297/70/297
f 223/64/223 221/41/221 297/70/297
f 49/43/49 222/63/222 295/67/295
f 223/64/223 296/68/296 295/67/295
f 248/48/248 267/81/267 265/73/265
f 281/89/281 280/58/280 285/93/285
f 234/51/234 233/58/233 270/56/270
f 276/51/276 271/51/271 270/56/270
f 113/35/113 219/36/219 274/36/274
f 242/37/242 206/38/206 200/38/200
f 264/40/264 200/38/200 257/45/257
f 263/42/263 30/43/30 94/87/94
f 214/39/214 209/38/209 206/38/206
f 257/45/257 205/46/205 202/46/202
f 253/47/253 248/48/248 245/48/245
f 211/50/211 235/51/235 234/51/234
f 262/52/262 210/53/210 261/55/261
f 258/45/258 208/46/208 205/46/205
f 259/54/259 210/53/210 236/53/236
f 213/50/213 207/51/207 235/51/235
f 213/50/213 208/46/208 215/50/215
f 260/45/260 216/39/216 262/52/262
f 211/50/211 205/46/205 213/50/213
f 214/39/214 210/53/210 216/39/216
f 270/56/270 28/57/28 114/57/114
f 273/46/273 211/50/211 272/88/272
f 243/39/243 200/38/200 218/41/218
f 240/59/240 203/60/203 238/60/238
f 264/40/264 29/61/29 218/41/218
f 211/50/211 271/51/271 272/88/272
f 222/63/222 243/39/243 223/64/223
f 218/41/218 48/61/48 221/41/221
f 223/64/223 218/41/218 221/41/221
f 246/65/246 253/47/253 245/48/245
f 295/67/295 226/37/226 225/69/225
f 145/43/145 225/69/225 54/43/54
f 297/70/297 226/37/226 296/68/296
f 147/71/147 224/70/224 297/70/297
f 203/60/203 233/58/233 234/51/234
f 265/73/265 236/53/236 245/48/245
f 245/48/245 241/53/241 246/65/246
f 204/74/204 234/51/234 235/51/235
f 247/75/247 241/53/241 244/44/244
f 217/59/217 263/42/263 233/58/233
f 268/76/268 217/59/217 240/59/240
f 256/77/256 249/65/249 252/78/252
f 203/60/203 239/74/239 238/60/238
f 255/49/255 249/65/249 248/48/248
f 254/79/254 246/65/246 247/75/247
f 250/75/250 269/80/269 249/65/249
f 239/74/239 269/80/269 238/60/238
f 254/79/254 250/75/250 256/77/256
f 250/75/250 266/76/266 268/76/268
f 204/74/204 267/81/267 239/74/239
f 274/36/274 202/46/202 273/46/273
f 248/48/248 269/80/269 267/81/267
f 240/59/240 269/80/269 268/76/268
f 247/75/247 263/42/263 266/76/266
f 204/74/204 259/54/259 265/73/265
f 27/35/27 264/40/264 219/36/219
f 208/46/208 262/52/262 215/50/215
f 259/54/259 207/51/207 261/55/261
f 258/45/258 209/38/209 260/45/260
f 215/50/215 261/55/261 207/51/207
f 257/45/257 206/38/206 258/45/258
f 233/58/233 94/87/94 28/57/28
f 219/36/219 257/45/257 202/46/202
f 120/35/120 274/36/274 279/36/279
f 279/36/279 273/46/273 278/46/278
f 277/50/277 271/51/271 276/51/276
f 278/46/278 272/88/272 277/50/277
f 275/58/275 114/57/114 121/57/121
f 121/57/121 280/58/280 275/58/275
f 279/36/279 127/35/127 120/35/120
f 276/51/276 280/58/280 281/89/281
f 278/46/278 284/36/284 279/36/279
f 277/50/277 281/89/281 282/50/282
f 278/46/278 282/50/282 283/46/283
f 289/90/289 283/46/283 288/94/288
f 282/50/282 286/91/286 287/92/287
f 283/46/283 287/92/287 288/94/288
f 280/58/280 135/57/135 285/93/285
f 134/35/134 284/36/284 289/90/289
f 289/90/289 141/35/141 134/35/134
f 286/91/286 290/58/290 291/95/291
f 288/94/288 294/36/294 289/90/289
f 287/92/287 291/95/291 292/50/292
f 288/94/288 292/50/292 293/46/293
f 285/93/285 142/57/142 290/58/290
f 48/61/48 297/70/297 221/41/221
f 223/64/223 297/70/297 296/68/296
f 49/43/49 295/67/295 145/43/145
f 223/64/223 295/67/295 222/63/222
f 248/48/248 265/73/265 245/48/245
f 281/89/281 285/93/285 286/91/286
f 234/51/234 270/56/270 271/51/271
f 276/51/276 270/56/270 275/58/275
usemtl fourrure_noir
f 78/37/78 71/53/71 77/53/77
f 51/63/51 79/39/79 80/44/80
f 57/37/57 61/63/61 62/39/62
f 54/43/54 61/63/61 56/69/56
f 55/70/55 62/39/62 60/41/60
f 53/72/53 60/41/60 58/61/58
f 62/39/62 66/63/66 67/39/67
f 59/43/59 66/63/66 61/63/61
f 62/39/62 65/41/65 60/41/60
f 58/61/58 65/41/65 63/61/63
f 76/82/76 66/63/66 64/43/64
f 65/41/65 76/82/76 63/61/63
f 24/83/24 78/37/78 77/53/77
f 47/84/47 78/37/78 39/85/39
f 72/86/72 77/53/77 80/44/80
f 47/84/47 80/44/80 79/39/79
f 24/83/24 47/84/47 39/85/39
f 89/47/89 88/78/88 87/66/87
f 87/66/87 92/77/92 90/79/90
f 139/46/139 152/36/152 151/46/151
f 138/50/138 149/95/149 137/95/137
f 139/46/139 150/50/150 138/50/138
f 142/57/142 148/58/148 154/57/154
f 141/35/141 152/36/152 140/36/140
f 137/95/137 148/58/148 136/58/136
f 158/46/158 164/50/164 157/50/157
f 161/57/161 162/96/162 168/57/168
f 160/35/160 166/36/166 159/36/159
f 155/58/155 163/95/163 162/96/162
f 159/36/159 165/46/165 158/46/158
f 157/50/157 163/95/163 156/95/156
f 180/36/180 172/46/172 173/36/173
f 171/50/171 177/95/177 170/95/170
f 172/46/172 178/50/178 171/50/171
f 176/96/176 175/57/175 169/96/169
f 181/35/181 173/36/173 174/35/174
f 187/36/187 195/35/195 194/36/194
f 184/95/184 190/96/190 183/96/183
f 186/46/186 194/36/194 193/46/193
f 185/50/185 191/95/191 184/95/184
f 185/50/185 193/46/193 192/50/192
f 183/96/183 196/57/196 189/57/189
f 170/95/170 176/96/176 169/96/169
f 49/43/49 80/44/80 30/43/30
f 78/37/78 41/39/41 71/53/71
f 57/37/57 56/69/56 61/63/61
f 54/43/54 59/43/59 61/63/61
f 55/70/55 57/37/57 62/39/62
f 53/72/53 55/70/55 60/41/60
f 62/39/62 61/63/61 66/63/66
f 59/43/59 64/43/64 66/63/66
f 62/39/62 67/39/67 65/41/65
f 58/61/58 60/41/60 65/41/65
f 76/82/76 67/39/67 66/63/66
f 65/41/65 67/39/67 76/82/76
f 24/83/24 39/85/39 78/37/78
f 47/84/47 79/39/79 78/37/78
f 72/86/72 24/83/24 77/53/77
f 47/84/47 72/86/72 80/44/80
f 24/83/24 72/86/72 47/84/47
f 89/47/89 91/49/91 88/78/88
f 87/66/87 88/78/88 92/77/92
f 139/46/139 140/36/140 152/36/152
f 138/50/138 150/50/150 149/95/149
f 139/46/139 151/46/151 150/50/150
f 142/57/142 136/58/136 148/58/148
f 141/35/141 153/35/153 152/36/152
f 137/95/137 149/95/149 148/58/148
f 158/46/158 165/46/165 164/50/164
f 161/57/161 155/58/155 162/96/162
f 160/35/160 167/35/167 166/36/166
f 155/58/155 156/95/156 163/95/163
f 159/36/159 166/36/166 165/46/165
f 157/50/157 164/50/164 163/95/163
f 180/36/180 179/46/179 172/46/172
f 171/50/171 178/50/178 177/95/177
f 172/46/172 179/46/179 178/50/178
f 176/96/176 182/57/182 175/57/175
f 181/35/181 180/36/180 173/36/173
f 187/36/187 188/35/188 195/35/195
f 184/95/184 191/95/191 190/96/190
f 186/46/186 187/36/187 194/36/194
f 185/50/185 192/50/192 191/95/191
f 185/50/185 186/46/186 193/46/193
f 183/96/183 190/96/190 196/57/196
f 170/95/170 177/95/177 176/96/176
f 49/43/49 51/63/51 80/44/80
f 242/37/242 241/53/241 236/53/236
f 222/63/222 244/44/244 243/39/243
f 226/37/226 229/39/229 228/63/228
f 54/43/54 225/69/225 228/63/228
f 224/70/224 227/41/227 229/39/229
f 53/72/53 58/61/58 227/41/227
f 229/39/229 232/39/232 231/63/231
f 59/43/59 228/63/228 231/63/231
f 229/39/229 227/41/227 230/41/230
f 58/61/58 63/61/63 230/41/230
f 76/82/76 64/43/64 231/63/231
f 230/41/230 63/61/63 76/82/76
f 201/83/201 241/53/241 242/37/242
f 220/84/220 212/85/212 242/37/242
f 237/86/237 244/44/244 241/53/241
f 220/84/220 243/39/243 244/44/244
f 201/83/201 212/85/212 220/84/220
f 253/47/253 251/66/251 252/78/252
f 251/66/251 254/79/254 256/77/256
f 293/46/293 301/46/301 302/36/302
f 292/50/292 291/95/291 299/95/299
f 293/46/293 292/50/292 300/50/300
f 142/57/142 154/57/154 298/58/298
f 141/35/141 294/36/294 302/36/302
f 291/95/291 290/58/290 298/58/298
f 306/46/306 305/50/305 310/50/310
f 161/57/161 168/57/168 308/96/308
f 160/35/160 307/36/307 312/36/312
f 303/58/303 308/96/308 309/95/309
f 307/36/307 306/46/306 311/46/311
f 305/50/305 304/95/304 309/95/309
f 322/36/322 317/36/317 316/46/316
f 315/50/315 314/95/314 319/95/319
f 316/46/316 315/50/315 320/50/320
f 318/96/318 313/96/313 175/57/175
f 181/35/181 174/35/174 317/36/317
f 327/36/327 332/36/332 195/35/195
f 324/95/324 323/96/323 328/96/328
f 326/46/326 331/46/331 332/36/332
f 325/50/325 324/95/324 329/95/329
f 325/50/325 330/50/330 331/46/331
f 323/96/323 189/57/189 196/57/196
f 314/95/314 313/96/313 318/96/318
f 49/43/49 30/43/30 244/44/244
f 242/37/242 236/53/236 214/39/214
f 226/37/226 228/63/228 225/69/225
f 54/43/54 228/63/228 59/43/59
f 224/70/224 229/39/229 226/37/226
f 53/72/53 227/41/227 224/70/224
f 229/39/229 231/63/231 228/63/228
f 59/43/59 231/63/231 64/43/64
f 229/39/229 230/41/230 232/39/232
f 58/61/58 230/41/230 227/41/227
f 76/82/76 231/63/231 232/39/232
f 230/41/230 76/82/76 232/39/232
f 201/83/201 242/37/242 212/85/212
f 220/84/220 242/37/242 243/39/243
f 237/86/237 241/53/241 201/83/201
f 220/84/220 244/44/244 237/86/237
f 201/83/201 220/84/220 237/86/237
f 253/47/253 252/78/252 255/49/255
f 251/66/251 256/77/256 252/78/252
f 293/46/293 302/36/302 294/36/294
f 292/50/292 299/95/299 300/50/300
f 293/46/293 300/50/300 301/46/301
f 142/57/142 298/58/298 290/58/290
f 141/35/141 302/36/302 153/35/153
f 291/95/291 298/58/298 299/95/299
f 306/46/306 310/50/310 311/46/311
f 161/57/161 308/96/308 303/58/303
f 160/35/160 312/36/312 167/35/167
f 303/58/303 309/95/309 304/95/304
f 307/36/307 311/46/311 312/36/312
f 305/50/305 309/95/309 310/50/310
f 322/36/322 316/46/316 321/46/321
f 315/50/315 319/95/319 320/50/320
f 316/46/316 320/50/320 321/46/321
f 318/96/318 175/57/175 182/57/182
f 181/35/181 317/36/317 322/36/322
f 327/36/327 195/35/195 188/35/188
f 324/95/324 328/96/328 329/95/329
f 326/46/326 332/36/332 327/36/327
f 325/50/325 329/95/329 330/50/330
f 325/50/325 331/46/331 326/46/326
f 323/96/323 196/57/196 328/96/328
f 314/95/314 318/96/318 319/95/319
f 49/43/49 244/44/244 222/63/222
usemtl fourrure_blanche_queue
f 155/58/155 154/57/154 148/58/148
f 153/35/153 159/36/159 152/36/152
f 152/36/152 158/46/158 151/46/151
f 150/50/150 156/95/156 149/95/149
f 151/46/151 157/50/157 150/50/150
f 168/57/168 169/96/169 175/57/175
f 167/35/167 173/36/173 166/36/166
f 162/96/162 170/95/170 169/96/169
f 166/36/166 172/46/172 165/46/165
f 164/50/164 170/95/170 163/95/163
f 165/46/165 171/50/171 164/50/164
f 156/95/156 148/58/148 149/95/149
f 177/95/177 183/96/183 176/96/176
f 179/46/179 187/36/187 186/46/186
f 178/50/178 184/95/184 177/95/177
f 179/46/179 185/50/185 178/50/178
f 176/96/176 189/57/189 182/57/182
f 180/36/180 188/35/188 187/36/187
f 190/96/190 198/82/198 196/57/196
f 192/50/192 198/82/198 191/95/191
f 193/46/193 197/82/197 192/50/192
f 199/82/199 194/36/194 195/35/195
f 155/58/155 161/57/161 154/57/154
f 153/35/153 160/35/160 159/36/159
f 152/36/152 159/36/159 158/46/158
f 150/50/150 157/50/157 156/95/156
f 151/46/151 158/46/158 157/50/157
f 168/57/168 162/96/162 169/96/169
f 167/35/167 174/35/174 173/36/173
f 162/96/162 163/95/163 170/95/170
f 166/36/166 173/36/173 172/46/172
f 164/50/164 171/50/171 170/95/170
f 165/46/165 172/46/172 171/50/171
f 156/95/156 155/58/155 148/58/148
f 177/95/177 184/95/184 183/96/183
f 179/46/179 180/36/180 187/36/187
f 178/50/178 185/50/185 184/95/184
f 179/46/179 186/46/186 185/50/185
f 176/96/176 183/96/183 189/57/189
f 180/36/180 181/35/181 188/35/188
f 190/96/190 191/95/191 198/82/198
f 192/50/192 197/82/197 198/82/198
f 193/46/193 199/82/199 197/82/197
f 199/82/199 193/46/193 194/36/194
f 303/58/303 298/58/298 154/57/154
f 153/35/153 302/36/302 307/36/307
f 302/36/302 301/46/301 306/46/306
f 300/50/300 299/95/299 304/95/304
f 301/46/301 300/50/300 305/50/305
f 168/57/168 175/57/175 313/96/313
f 167/35/167 312/36/312 317/36/317
f 308/96/308 313/96/313 314/95/314
f 312/36/312 311/46/311 316/46/316
f 310/50/310 309/95/309 314/95/314
f 311/46/311 310/50/310 315/50/315
f 304/95/304 299/95/299 298/58/298
f 319/95/319 318/96/318 323/96/323
f 321/46/321 326/46/326 327/36/327
f 320/50/320 319/95/319 324/95/324
f 321/46/321 320/50/320 325/50/325
f 318/96/318 182/57/182 189/57/189
f 322/36/322 327/36/327 188/35/188
f 328/96/328 196/57/196 198/82/198
f 330/50/330 329/95/329 198/82/198
f 331/46/331 330/50/330 197/82/197
f 199/82/199 195/35/195 332/36/332
f 303/58/303 154/57/154 161/57/161
f 153/35/153 307/36/307 160/35/160
f 302/36/302 306/46/306 307/36/307
f 300/50/300 304/95/304 305/50/305
f 301/46/301 305/50/305 306/46/306
f 168/57/168 313/96/313 308/96/308
f 167/35/167 317/36/317 174/35/174
f 308/96/308 314/95/314 309/95/309
f 312/36/312 316/46/316 317/36/317
f 310/50/310 314/95/314 315/50/315
f 311/46/311 315/50/315 316/46/316
f 304/95/304 298/58/298 303/58/303
f 319/95/319 323/96/323 324/95/324
f 321/46/321 327/36/327 322/36/322
f 320/50/320 324/95/324 325/50/325
f 321/46/321 325/50/325 326/46/326
f 318/96/318 189/57/189 323/96/323
f 322/36/322 188/35/188 181/35/181
f 328/96/328 198/82/198 329/95/329
f 330/50/330 198/82/198 197/82/197
f 331/46/331 197/82/197 199/82/199
f 199/82/199 332/36/332 331/46/331
