# Blender 5.0.1
# www.blender.org
mtllib road.mtl
g Road_Cube
v -288.612793 1.000000 1339.874512
v -288.612793 -1.000000 -25.000000
v -288.612793 1.000000 -25.000000
v -8.844652 1.000000 -25.000000
v -8.844652 1.000000 1339.874512
v -8.844652 -1.000000 -25.000000
v 0.000000 1.000000 -25.000000
v 0.000000 -1.000000 1339.874512
v 0.000000 1.000000 1339.874512
v -10.011273 -1.000000 1339.874512
v -10.011273 1.000000 -25.000000
v -10.011273 1.000000 1339.874512
v -26.278999 1.000000 1339.874512
v -26.278999 1.000000 -25.000000
v -10.011273 1.746026 -25.000000
v -8.844652 1.746026 -25.000000
v -8.844652 1.746026 1339.874512
v -10.011273 1.746026 1339.874512
v -288.612793 3.200854 1339.874512
v -288.612793 3.200854 -25.000000
v -26.278999 3.200854 1339.874512
v -26.278999 3.200854 -25.000000
v 288.612793 1.000000 1339.874512
v 288.612793 -1.000000 -25.000000
v 288.612793 1.000000 -25.000000
v 8.844652 1.000000 -25.000000
v 8.844652 1.000000 1339.874512
v 8.844652 -1.000000 -25.000000
v 10.011273 -1.000000 1339.874512
v 10.011273 1.000000 -25.000000
v 10.011273 1.000000 1339.874512
v 26.278999 1.000000 1339.874512
v 26.278999 1.000000 -25.000000
v 10.011273 1.746026 -25.000000
v 8.844652 1.746026 -25.000000
v 8.844652 1.746026 1339.874512
v 10.011273 1.746026 1339.874512
v 288.612793 3.200854 1339.874512
v 288.612793 3.200854 -25.000000
v 26.278999 3.200854 1339.874512
v 26.278999 3.200854 -25.000000
vn -1.0000 -0.0000 -0.0000
vn -0.0000 1.0000 -0.0000
vn 1.0000 -0.0000 -0.0000
vn -0.0000 -0.0000 -1.0000
vn -0.0000 -0.0000 1.0000
vt 0.625000 0.000000
vt 0.644930 0.341761
vt 0.625000 0.250000
vt 0.764390 0.500000
vt 0.782587 0.724254
vt 0.750000 0.500000
vt 0.714195 0.771989
vt 0.792755 0.500000
vt 0.717092 0.772829
vt 0.766288 0.500000
vt 0.625000 0.358712
vt 0.625000 0.360610
vt 0.625000 0.889390
vt 0.625000 0.891288
vt 0.652554 1.000079
vt 0.724398 0.387787
vt 0.493448 0.938070
vt 0.625659 0.917397
vt 0.624499 1.000277
vt 0.822569 0.763316
vt 0.625942 0.324702
vt 0.375000 0.250000
vt 0.375000 0.360610
vt 0.375000 0.891288
vt 0.868692 0.444533
vt 0.983746 0.356681
s 0
g Road_asphalt_02.004
usemtl asphalt_02.004
f 4/4/2 9/5/2 7/6/2
f 14/8/2 12/9/2 11/10/2
f 4/4/2 5/7/2 9/5/2
f 14/8/2 13/20/2 12/9/2
f 26/4/2 7/6/2 9/5/2
f 33/8/2 30/10/2 31/9/2
f 26/4/2 9/5/2 27/7/2
f 33/8/2 31/9/2 32/20/2
g Road_Trottoir
usemtl Trottoir
f 1/1/1 20/2/1 3/3/1
f 4/4/3 17/7/3 5/7/3
f 15/10/2 17/7/2 16/4/2
f 11/11/4 16/12/4 4/12/4
f 12/9/1 15/10/1 11/10/1
f 5/13/5 18/14/5 12/14/5
f 13/18/5 19/17/5 1/19/5
f 14/8/3 21/20/3 13/20/3
f 3/3/4 22/21/4 14/21/4
f 1/1/1 3/3/1 2/22/1
f 11/11/4 4/12/4 6/23/4
f 1/1/1 19/1/1 20/2/1
f 4/4/3 16/4/3 17/7/3
f 5/13/5 12/14/5 10/24/5
f 15/10/2 18/9/2 17/7/2
f 11/11/4 15/11/4 16/12/4
f 12/9/1 18/9/1 15/10/1
f 5/13/5 17/13/5 18/14/5
f 13/18/5 21/15/5 19/17/5
f 14/8/3 22/26/3 21/20/3
f 3/3/4 20/2/4 22/21/4
f 23/1/3 25/3/3 39/2/3
f 26/4/1 27/7/1 36/7/1
f 34/10/2 35/4/2 36/7/2
f 30/11/4 26/12/4 35/12/4
f 31/9/3 30/10/3 34/10/3
f 27/13/5 31/14/5 37/14/5
f 32/18/5 23/19/5 38/17/5
f 33/8/1 32/20/1 40/20/1
f 25/3/4 33/21/4 41/21/4
f 23/1/3 24/22/3 25/3/3
f 30/11/4 28/23/4 26/12/4
f 23/1/3 39/2/3 38/1/3
f 26/4/1 36/7/1 35/4/1
f 27/13/5 29/24/5 31/14/5
f 34/10/2 36/7/2 37/9/2
f 30/11/4 35/12/4 34/11/4
f 31/9/3 34/10/3 37/9/3
f 27/13/5 37/14/5 36/13/5
f 32/18/5 38/17/5 40/15/5
f 33/8/1 40/20/1 41/26/1
f 25/3/4 41/21/4 39/2/4
g Road_bricks
usemtl bricks
f 21/15/2 20/16/2 19/17/2
f 21/15/2 22/25/2 20/16/2
f 40/15/2 38/17/2 39/16/2
f 40/15/2 39/16/2 41/25/2
l 9 8
l 10 6
l 29 28
g Cube_Cube.001
v -121.134674 0.918724 68.035622
v -121.134674 189.590729 68.035622
v -121.134674 0.918724 8.285622
v -121.134674 189.590729 8.285622
v -61.384674 0.918724 68.035622
v -61.384674 189.590729 68.035622
v -61.384674 0.918724 8.285622
v -61.384674 189.590729 8.285622
vn -1.0000 -0.0000 -0.0000
vn -0.0000 -0.0000 -1.0000
vn 1.0000 -0.0000 -0.0000
vn -0.0000 -0.0000 1.0000
vn -0.0000 -1.0000 -0.0000
vn -0.0000 1.0000 -0.0000
vt 0.625000 0.000000
vt 0.375000 0.250000
vt 0.375000 0.000000
vt 0.625000 0.250000
vt 0.375000 0.500000
vt 0.625000 0.500000
vt 0.375000 0.750000
vt 0.625000 0.750000
vt 0.375000 1.000000
vt 0.125000 0.750000
vt 0.125000 0.500000
vt 0.875000 0.500000
vt 0.625000 1.000000
vt 0.875000 0.750000
s 0
g Cube_asphalt_02.003
usemtl asphalt_02.003
f 43/27/6 44/28/6 42/29/6
f 45/30/7 48/31/7 44/28/7
f 49/32/8 46/33/8 48/31/8
f 47/34/9 42/35/9 46/33/9
f 48/31/10 42/36/10 44/37/10
f 45/38/11 47/34/11 49/32/11
f 43/27/6 45/30/6 44/28/6
f 45/30/7 49/32/7 48/31/7
f 49/32/8 47/34/8 46/33/8
f 47/34/9 43/39/9 42/35/9
f 48/31/10 46/33/10 42/36/10
f 45/38/11 43/40/11 47/34/11
g Cube.001_Cube.002
v 52.828491 0.918724 222.606049
v 52.828491 113.714134 222.606049
v 52.828491 0.918724 162.856049
v 52.828491 113.714134 162.856049
v 112.578491 0.918724 222.606049
v 112.578491 113.714134 222.606049
v 112.578491 0.918724 162.856049
v 112.578491 113.714134 162.856049
vn -1.0000 -0.0000 -0.0000
vn -0.0000 -0.0000 -1.0000
vn 1.0000 -0.0000 -0.0000
vn -0.0000 -0.0000 1.0000
vn -0.0000 -1.0000 -0.0000
vn -0.0000 1.0000 -0.0000
vt 0.625000 0.000000
vt 0.375000 0.250000
vt 0.375000 0.000000
vt 0.625000 0.250000
vt 0.375000 0.500000
vt 0.625000 0.500000
vt 0.375000 0.750000
vt 0.625000 0.750000
vt 0.375000 1.000000
vt 0.125000 0.750000
vt 0.125000 0.500000
vt 0.875000 0.500000
vt 0.625000 1.000000
vt 0.875000 0.750000
s 0
g Cube.001_asphalt_02.003
usemtl asphalt_02.003
f 51/41/12 52/42/12 50/43/12
f 53/44/13 56/45/13 52/42/13
f 57/46/14 54/47/14 56/45/14
f 55/48/15 50/49/15 54/47/15
f 56/45/16 50/50/16 52/51/16
f 53/52/17 55/48/17 57/46/17
f 51/41/12 53/44/12 52/42/12
f 53/44/13 57/46/13 56/45/13
f 57/46/14 55/48/14 54/47/14
f 55/48/15 51/53/15 50/49/15
f 56/45/16 54/47/16 50/50/16
f 53/52/17 51/54/17 55/48/17
g Cube.002_Cube.003
v 68.043152 0.918724 127.407799
v 68.043152 143.801086 127.407799
v 68.043152 0.918724 -16.188110
v 68.043152 143.801086 -16.188110
v 127.793152 0.918724 127.407799
v 127.793152 143.801086 127.407799
v 127.793152 0.918724 -16.188110
v 127.793152 143.801086 -16.188110
vn -1.0000 -0.0000 -0.0000
vn -0.0000 -0.0000 -1.0000
vn 1.0000 -0.0000 -0.0000
vn -0.0000 -0.0000 1.0000
vn -0.0000 -1.0000 -0.0000
vn -0.0000 1.0000 -0.0000
vt 0.625000 0.000000
vt 0.375000 0.250000
vt 0.375000 0.000000
vt 0.625000 0.250000
vt 0.375000 0.500000
vt 0.625000 0.500000
vt 0.375000 0.750000
vt 0.625000 0.750000
vt 0.375000 1.000000
vt 0.125000 0.750000
vt 0.125000 0.500000
vt 0.875000 0.500000
vt 0.625000 1.000000
vt 0.875000 0.750000
s 0
g Cube.002_asphalt_02.003
usemtl asphalt_02.003
f 59/55/18 60/56/18 58/57/18
f 61/58/19 64/59/19 60/56/19
f 65/60/20 62/61/20 64/59/20
f 63/62/21 58/63/21 62/61/21
f 64/59/22 58/64/22 60/65/22
f 61/66/23 63/62/23 65/60/23
f 59/55/18 61/58/18 60/56/18
f 61/58/19 65/60/19 64/59/19
f 65/60/20 63/62/20 62/61/20
f 63/62/21 59/67/21 58/63/21
f 64/59/22 62/61/22 58/64/22
f 61/66/23 59/68/23 63/62/23
g Cube.003_Cube.004
v -156.424500 0.918724 270.596649
v -156.424500 143.801086 270.596649
v -156.424500 0.918724 127.000748
v -156.424500 143.801086 127.000748
v -96.674492 0.918724 270.596649
v -96.674492 143.801086 270.596649
v -96.674492 0.918724 127.000748
v -96.674492 143.801086 127.000748
vn -1.0000 -0.0000 -0.0000
vn -0.0000 -0.0000 -1.0000
vn 1.0000 -0.0000 -0.0000
vn -0.0000 -0.0000 1.0000
vn -0.0000 -1.0000 -0.0000
vn -0.0000 1.0000 -0.0000
vt 0.625000 0.000000
vt 0.375000 0.250000
vt 0.375000 0.000000
vt 0.625000 0.250000
vt 0.375000 0.500000
vt 0.625000 0.500000
vt 0.375000 0.750000
vt 0.625000 0.750000
vt 0.375000 1.000000
vt 0.125000 0.750000
vt 0.125000 0.500000
vt 0.875000 0.500000
vt 0.625000 1.000000
vt 0.875000 0.750000
s 0
g Cube.003_asphalt_02.003
usemtl asphalt_02.003
f 67/69/24 68/70/24 66/71/24
f 69/72/25 72/73/25 68/70/25
f 73/74/26 70/75/26 72/73/26
f 71/76/27 66/77/27 70/75/27
f 72/73/28 66/78/28 68/79/28
f 69/80/29 71/76/29 73/74/29
f 67/69/24 69/72/24 68/70/24
f 69/72/25 73/74/25 72/73/25
f 73/74/26 71/76/26 70/75/26
f 71/76/27 67/81/27 66/77/27
f 72/73/28 70/75/28 66/78/28
f 69/80/29 67/82/29 71/76/29
g Cube.004_Cube.005
v -195.176819 0.918724 437.923462
v -195.176819 143.801086 437.923462
v -195.176819 0.918724 294.327576
v -195.176819 143.801086 294.327576
v -135.426819 0.918724 437.923462
v -135.426819 143.801086 437.923462
v -135.426819 0.918724 294.327576
v -135.426819 143.801086 294.327576
vn -1.0000 -0.0000 -0.0000
vn -0.0000 -0.0000 -1.0000
vn 1.0000 -0.0000 -0.0000
vn -0.0000 -0.0000 1.0000
vn -0.0000 -1.0000 -0.0000
vn -0.0000 1.0000 -0.0000
vt 0.625000 0.000000
vt 0.375000 0.250000
vt 0.375000 0.000000
vt 0.625000 0.250000
vt 0.375000 0.500000
vt 0.625000 0.500000
vt 0.375000 0.750000
vt 0.625000 0.750000
vt 0.375000 1.000000
vt 0.125000 0.750000
vt 0.125000 0.500000
vt 0.875000 0.500000
vt 0.625000 1.000000
vt 0.875000 0.750000
s 0
g Cube.004_asphalt_02.003
usemtl asphalt_02.003
f 75/83/30 76/84/30 74/85/30
f 77/86/31 80/87/31 76/84/31
f 81/88/32 78/89/32 80/87/32
f 79/90/33 74/91/33 78/89/33
f 80/87/34 74/92/34 76/93/34
f 77/94/35 79/90/35 81/88/35
f 75/83/30 77/86/30 76/84/30
f 77/86/31 81/88/31 80/87/31
f 81/88/32 79/90/32 78/89/32
f 79/90/33 75/95/33 74/91/33
f 80/87/34 78/89/34 74/92/34
f 77/94/35 75/96/35 79/90/35
g Cube.005_Cube.006
v 81.739471 0.918724 365.963348
v 81.739471 189.590729 365.963348
v 81.739471 0.918724 306.213348
v 81.739471 189.590729 306.213348
v 141.489471 0.918724 365.963348
v 141.489471 189.590729 365.963348
v 141.489471 0.918724 306.213348
v 141.489471 189.590729 306.213348
vn -1.0000 -0.0000 -0.0000
vn -0.0000 -0.0000 -1.0000
vn 1.0000 -0.0000 -0.0000
vn -0.0000 -0.0000 1.0000
vn -0.0000 -1.0000 -0.0000
vn -0.0000 1.0000 -0.0000
vt 0.625000 0.000000
vt 0.375000 0.250000
vt 0.375000 0.000000
vt 0.625000 0.250000
vt 0.375000 0.500000
vt 0.625000 0.500000
vt 0.375000 0.750000
vt 0.625000 0.750000
vt 0.375000 1.000000
vt 0.125000 0.750000
vt 0.125000 0.500000
vt 0.875000 0.500000
vt 0.625000 1.000000
vt 0.875000 0.750000
s 0
g Cube.005_asphalt_02.003
usemtl asphalt_02.003
f 83/97/36 84/98/36 82/99/36
f 85/100/37 88/101/37 84/98/37
f 89/102/38 86/103/38 88/101/38
f 87/104/39 82/105/39 86/103/39
f 88/101/40 82/106/40 84/107/40
f 85/108/41 87/104/41 89/102/41
f 83/97/36 85/100/36 84/98/36
f 85/100/37 89/102/37 88/101/37
f 89/102/38 87/104/38 86/103/38
f 87/104/39 83/109/39 82/105/39
f 88/101/40 86/103/40 82/106/40
f 85/108/41 83/110/41 87/104/41
g Cube.006_Cube.007
v 76.248589 0.918724 705.073120
v 76.248589 189.590729 705.073120
v 76.248589 0.918724 645.323120
v 76.248589 189.590729 645.323120
v 135.998596 0.918724 705.073120
v 135.998596 189.590729 705.073120
v 135.998596 0.918724 645.323120
v 135.998596 189.590729 645.323120
vn -1.0000 -0.0000 -0.0000
vn -0.0000 -0.0000 -1.0000
vn 1.0000 -0.0000 -0.0000
vn -0.0000 -0.0000 1.0000
vn -0.0000 -1.0000 -0.0000
vn -0.0000 1.0000 -0.0000
vt 0.625000 0.000000
vt 0.375000 0.250000
vt 0.375000 0.000000
vt 0.625000 0.250000
vt 0.375000 0.500000
vt 0.625000 0.500000
vt 0.375000 0.750000
vt 0.625000 0.750000
vt 0.375000 1.000000
vt 0.125000 0.750000
vt 0.125000 0.500000
vt 0.875000 0.500000
vt 0.625000 1.000000
vt 0.875000 0.750000
s 0
g Cube.006_asphalt_02.003
usemtl asphalt_02.003
f 91/111/42 92/112/42 90/113/42
f 93/114/43 96/115/43 92/112/43
f 97/116/44 94/117/44 96/115/44
f 95/118/45 90/119/45 94/117/45
f 96/115/46 90/120/46 92/121/46
f 93/122/47 95/118/47 97/116/47
f 91/111/42 93/114/42 92/112/42
f 93/114/43 97/116/43 96/115/43
f 97/116/44 95/118/44 94/117/44
f 95/118/45 91/123/45 90/119/45
f 96/115/46 94/117/46 90/120/46
f 93/122/47 91/124/47 95/118/47
g Cube.007_Cube.008
v -133.399292 0.918724 995.790894
v -133.399292 189.590729 995.790894
v -133.399292 0.918724 936.040894
v -133.399292 189.590729 936.040894
v -73.649300 0.918724 995.790894
v -73.649300 189.590729 995.790894
v -73.649300 0.918724 936.040894
v -73.649300 189.590729 936.040894
vn -1.0000 -0.0000 -0.0000
vn -0.0000 -0.0000 -1.0000
vn 1.0000 -0.0000 -0.0000
vn -0.0000 -0.0000 1.0000
vn -0.0000 -1.0000 -0.0000
vn -0.0000 1.0000 -0.0000
vt 0.625000 0.000000
vt 0.375000 0.250000
vt 0.375000 0.000000
vt 0.625000 0.250000
vt 0.375000 0.500000
vt 0.625000 0.500000
vt 0.375000 0.750000
vt 0.625000 0.750000
vt 0.375000 1.000000
vt 0.125000 0.750000
vt 0.125000 0.500000
vt 0.875000 0.500000
vt 0.625000 1.000000
vt 0.875000 0.750000
s 0
g Cube.007_asphalt_02.003
usemtl asphalt_02.003
f 99/125/48 100/126/48 98/127/48
f 101/128/49 104/129/49 100/126/49
f 105/130/50 102/131/50 104/129/50
f 103/132/51 98/133/51 102/131/51
f 104/129/52 98/134/52 100/135/52
f 101/136/53 103/132/53 105/130/53
f 99/125/48 101/128/48 100/126/48
f 101/128/49 105/130/49 104/129/49
f 105/130/50 103/132/50 102/131/50
f 103/132/51 99/137/51 98/133/51
f 104/129/52 102/131/52 98/134/52
f 101/136/53 99/138/53 103/132/53
g Cube.008_Cube.009
v 99.383850 0.918724 1333.005737
v 99.383850 189.590729 1333.005737
v 99.383850 0.918724 1273.255737
v 99.383850 189.590729 1273.255737
v 159.133850 0.918724 1333.005737
v 159.133850 189.590729 1333.005737
v 159.133850 0.918724 1273.255737
v 159.133850 189.590729 1273.255737
vn -1.0000 -0.0000 -0.0000
vn -0.0000 -0.0000 -1.0000
vn 1.0000 -0.0000 -0.0000
vn -0.0000 -0.0000 1.0000
vn -0.0000 -1.0000 -0.0000
vn -0.0000 1.0000 -0.0000
vt 0.625000 0.000000
vt 0.375000 0.250000
vt 0.375000 0.000000
vt 0.625000 0.250000
vt 0.375000 0.500000
vt 0.625000 0.500000
vt 0.375000 0.750000
vt 0.625000 0.750000
vt 0.375000 1.000000
vt 0.125000 0.750000
vt 0.125000 0.500000
vt 0.875000 0.500000
vt 0.625000 1.000000
vt 0.875000 0.750000
s 0
g Cube.008_asphalt_02.003
usemtl asphalt_02.003
f 107/139/54 108/140/54 106/141/54
f 109/142/55 112/143/55 108/140/55
f 113/144/56 110/145/56 112/143/56
f 111/146/57 106/147/57 110/145/57
f 112/143/58 106/148/58 108/149/58
f 109/150/59 111/146/59 113/144/59
f 107/139/54 109/142/54 108/140/54
f 109/142/55 113/144/55 112/143/55
f 113/144/56 111/146/56 110/145/56
f 111/146/57 107/151/57 106/147/57
f 112/143/58 110/145/58 106/148/58
f 109/150/59 107/152/59 111/146/59
g Cube.009_Cube.010
v 107.791336 0.918739 964.063416
v 107.791336 143.801102 964.063416
v 107.791336 0.918739 820.467468
v 107.791336 143.801102 820.467468
v 167.541336 0.918739 964.063416
v 167.541336 143.801102 964.063416
v 167.541336 0.918739 820.467468
v 167.541336 143.801102 820.467468
vn -1.0000 -0.0000 -0.0000
vn -0.0000 -0.0000 -1.0000
vn 1.0000 -0.0000 -0.0000
vn -0.0000 -0.0000 1.0000
vn -0.0000 -1.0000 -0.0000
vn -0.0000 1.0000 -0.0000
vt 0.625000 0.000000
vt 0.375000 0.250000
vt 0.375000 0.000000
vt 0.625000 0.250000
vt 0.375000 0.500000
vt 0.625000 0.500000
vt 0.375000 0.750000
vt 0.625000 0.750000
vt 0.375000 1.000000
vt 0.125000 0.750000
vt 0.125000 0.500000
vt 0.875000 0.500000
vt 0.625000 1.000000
vt 0.875000 0.750000
s 0
g Cube.009_asphalt_02.003
usemtl asphalt_02.003
f 115/153/60 116/154/60 114/155/60
f 117/156/61 120/157/61 116/154/61
f 121/158/62 118/159/62 120/157/62
f 119/160/63 114/161/63 118/159/63
f 120/157/64 114/162/64 116/163/64
f 117/164/65 119/160/65 121/158/65
f 115/153/60 117/156/60 116/154/60
f 117/156/61 121/158/61 120/157/61
f 121/158/62 119/160/62 118/159/62
f 119/160/63 115/165/63 114/161/63
f 120/157/64 118/159/64 114/162/64
f 117/164/65 115/166/65 119/160/65
