# Blender 5.1.1
# www.blender.org
mtllib star.mtl
o Star
v 0.000000 1.000000 0.000000
v -0.282019 0.388166 0.000000
v -0.951057 0.309017 0.000000
v -0.456316 -0.148266 -0.000000
v -0.587785 -0.809017 -0.000000
v 0.000000 -0.479799 -0.000000
v 0.587785 -0.809017 -0.000000
v 0.456316 -0.148266 -0.000000
v 0.951057 0.309017 0.000000
v 0.282019 0.388166 0.000000
v -0.025985 0.049318 0.282613
v -0.025985 0.049318 -0.282613
vn -0.0717 0.6063 0.7920
vn -0.3685 -0.3987 0.8398
vn -0.5818 0.1158 0.8050
vn 0.2501 -0.4466 0.8591
vn -0.2603 -0.4648 0.8463
vn 0.5348 0.1064 0.8383
vn 0.3484 -0.3770 0.8582
vn 0.0710 0.6000 0.7968
vn 0.5057 0.2331 0.8306
vn -0.5472 0.2522 0.7981
vn -0.0717 0.6063 -0.7920
vn -0.3685 -0.3987 -0.8398
vn -0.5818 0.1158 -0.8050
vn 0.2501 -0.4466 -0.8591
vn -0.2603 -0.4648 -0.8463
vn 0.5348 0.1064 -0.8383
vn 0.3484 -0.3770 -0.8582
vn 0.0710 0.6000 -0.7968
vn 0.5057 0.2331 -0.8306
vn -0.5472 0.2522 -0.7981
vt 0.000000 0.000000
s 0
usemtl Yellow
f 2/1/1 3/1/1 11/1/1
f 3/1/2 4/1/2 11/1/2
f 4/1/3 5/1/3 11/1/3
f 5/1/4 6/1/4 11/1/4
f 6/1/5 7/1/5 11/1/5
f 7/1/6 8/1/6 11/1/6
f 8/1/7 9/1/7 11/1/7
f 9/1/8 10/1/8 11/1/8
f 10/1/9 1/1/9 11/1/9
f 1/1/10 2/1/10 11/1/10
f 2/1/11 12/1/11 3/1/11
f 3/1/12 12/1/12 4/1/12
f 4/1/13 12/1/13 5/1/13
f 5/1/14 12/1/14 6/1/14
f 6/1/15 12/1/15 7/1/15
f 7/1/16 12/1/16 8/1/16
f 8/1/17 12/1/17 9/1/17
f 9/1/18 12/1/18 10/1/18
f 10/1/19 12/1/19 1/1/19
f 1/1/20 12/1/20 2/1/20
o Eye
v 0.193723 0.095856 -0.079241
v 0.121363 -0.009289 -0.134519
v 0.221362 -0.074274 -0.134519
v 0.283166 0.095856 -0.134519
v 0.221362 0.265986 -0.134519
v 0.121363 0.201001 -0.134519
v 0.166085 -0.074274 -0.223963
v 0.266084 -0.009289 -0.223963
v 0.266084 0.201001 -0.223963
v 0.166085 0.265986 -0.223963
v 0.104281 0.095856 -0.223962
v 0.193723 0.095856 -0.279241
v 0.209969 -0.004143 -0.094175
v 0.151191 0.034054 -0.094175
v 0.167437 -0.065946 -0.126667
v 0.108659 0.095856 -0.126667
v 0.151191 0.157658 -0.094175
v 0.246296 0.095856 -0.094176
v 0.262542 -0.004143 -0.126667
v 0.209969 0.195855 -0.094175
v 0.262542 0.195855 -0.126667
v 0.167437 0.257658 -0.126667
v 0.098618 0.034053 -0.179241
v 0.098618 0.157658 -0.179241
v 0.193723 -0.104144 -0.179241
v 0.134945 -0.065947 -0.179241
v 0.288829 0.034053 -0.179241
v 0.252502 -0.065947 -0.179241
v 0.252502 0.257659 -0.179241
v 0.288829 0.157658 -0.179241
v 0.134945 0.257659 -0.179241
v 0.193723 0.295856 -0.179241
v 0.124904 -0.004143 -0.231814
v 0.220010 -0.065946 -0.231815
v 0.278788 0.095856 -0.231814
v 0.220010 0.257658 -0.231815
v 0.124904 0.195855 -0.231814
v 0.177478 -0.004143 -0.264306
v 0.141150 0.095856 -0.264306
v 0.236256 0.034054 -0.264306
v 0.236256 0.157658 -0.264306
v 0.177478 0.195855 -0.264306
v -0.193723 0.095856 -0.079241
v -0.121363 -0.009289 -0.134519
v -0.221362 -0.074274 -0.134519
v -0.283166 0.095856 -0.134519
v -0.221362 0.265986 -0.134519
v -0.121363 0.201001 -0.134519
v -0.166085 -0.074274 -0.223963
v -0.266084 -0.009289 -0.223963
v -0.266084 0.201001 -0.223963
v -0.166085 0.265986 -0.223963
v -0.104281 0.095856 -0.223962
v -0.193723 0.095856 -0.279241
v -0.209969 -0.004143 -0.094175
v -0.151191 0.034054 -0.094175
v -0.167437 -0.065946 -0.126667
v -0.108659 0.095856 -0.126667
v -0.151191 0.157658 -0.094175
v -0.246296 0.095856 -0.094176
v -0.262542 -0.004143 -0.126667
v -0.209969 0.195855 -0.094175
v -0.262542 0.195855 -0.126667
v -0.167437 0.257658 -0.126667
v -0.098618 0.034053 -0.179241
v -0.098618 0.157658 -0.179241
v -0.193723 -0.104144 -0.179241
v -0.134945 -0.065947 -0.179241
v -0.288829 0.034053 -0.179241
v -0.252502 -0.065947 -0.179241
v -0.252502 0.257659 -0.179241
v -0.288829 0.157658 -0.179241
v -0.134945 0.257659 -0.179241
v -0.193723 0.295856 -0.179241
v -0.124904 -0.004143 -0.231814
v -0.220010 -0.065946 -0.231815
v -0.278788 0.095856 -0.231814
v -0.220010 0.257658 -0.231815
v -0.124904 0.195855 -0.231814
v -0.177478 -0.004143 -0.264306
v -0.141150 0.095856 -0.264306
v -0.236256 0.034054 -0.264306
v -0.236256 0.157658 -0.264306
v -0.177478 0.195855 -0.264306
vn -0.1064 -0.1638 0.9807
vn -0.7199 -0.1378 0.6803
vn 0.2719 -0.0988 0.9572
vn 0.2719 0.0988 0.9572
vn -0.1064 0.1638 0.9807
vn -0.9304 -0.1378 0.3397
vn -0.0429 -0.8184 0.5731
vn 0.9248 -0.1638 0.3434
vn 0.7548 0.4918 0.4340
vn -0.7233 0.5263 0.4470
vn -0.9299 -0.3378 0.1456
vn 0.5318 -0.8184 0.2179
vn 0.9921 -0.0000 0.1256
vn 0.5318 0.8184 0.2179
vn -0.9299 0.3378 0.1456
vn -0.4875 -0.3745 -0.7887
vn 0.5460 -0.3378 -0.7666
vn 0.7199 0.1378 -0.6803
vn -0.0506 0.4918 -0.8692
vn -0.7346 0.0988 -0.6713
vn -0.2719 0.0988 -0.9572
vn -0.5164 0.1876 -0.8356
vn -0.4875 0.3745 -0.7887
vn 0.1064 0.1638 -0.9807
vn 0.2166 0.3333 -0.9176
vn 0.5460 0.3378 -0.7666
vn 0.3313 -0.0000 -0.9435
vn 0.6071 -0.0000 -0.7947
vn 0.7199 -0.1378 -0.6803
vn 0.1064 -0.1638 -0.9807
vn 0.2166 -0.3333 -0.9176
vn -0.0506 -0.4918 -0.8692
vn -0.2719 -0.0988 -0.9572
vn -0.5164 -0.1876 -0.8356
vn -0.7346 -0.0988 -0.6713
vn -0.9248 0.1638 -0.3434
vn -0.9176 0.3333 -0.2166
vn -0.7548 0.4918 -0.4340
vn 0.0429 0.8184 -0.5731
vn 0.5164 0.7947 -0.3192
vn 0.7233 0.5263 -0.4470
vn 0.9304 0.1378 -0.3397
vn 0.9822 -0.0000 -0.1876
vn 0.9304 -0.1378 -0.3397
vn 0.7233 -0.5263 -0.4470
vn 0.5164 -0.7947 -0.3192
vn 0.0429 -0.8184 -0.5731
vn -0.7548 -0.4918 -0.4340
vn -0.9176 -0.3333 -0.2166
vn -0.9248 -0.1638 -0.3434
vn -0.5318 0.8184 -0.2179
vn -0.5164 0.7947 0.3192
vn -0.0429 0.8184 0.5731
vn 0.9299 0.3378 -0.1456
vn 0.9176 0.3333 0.2166
vn 0.9248 0.1638 0.3434
vn 0.9299 -0.3378 -0.1456
vn 0.9176 -0.3333 0.2166
vn 0.7548 -0.4918 0.4340
vn -0.5318 -0.8184 -0.2179
vn -0.5164 -0.7947 0.3192
vn -0.7233 -0.5263 0.4470
vn -0.9921 -0.0000 -0.1256
vn -0.9822 -0.0000 0.1876
vn -0.9304 0.1378 0.3397
vn -0.5460 0.3378 0.7666
vn -0.2166 0.3333 0.9176
vn 0.0506 0.4918 0.8692
vn 0.4875 0.3745 0.7887
vn 0.5164 0.1876 0.8356
vn 0.7346 0.0988 0.6713
vn 0.7346 -0.0988 0.6713
vn 0.5164 -0.1876 0.8356
vn 0.4875 -0.3745 0.7887
vn -0.7199 0.1378 0.6803
vn -0.6071 -0.0000 0.7947
vn -0.3313 -0.0000 0.9435
vn 0.0506 -0.4918 0.8692
vn -0.2166 -0.3333 0.9176
vn -0.5460 -0.3378 0.7666
vn 0.1064 -0.1638 0.9807
vn 0.7199 -0.1378 0.6803
vn -0.2719 -0.0988 0.9572
vn -0.2719 0.0988 0.9572
vn 0.1064 0.1638 0.9807
vn 0.9304 -0.1378 0.3397
vn 0.0429 -0.8184 0.5731
vn -0.9248 -0.1638 0.3434
vn -0.7548 0.4918 0.4340
vn 0.7233 0.5263 0.4470
vn 0.9299 -0.3378 0.1456
vn -0.5318 -0.8184 0.2179
vn -0.9921 -0.0000 0.1256
vn -0.5318 0.8184 0.2179
vn 0.9299 0.3378 0.1456
vn 0.4875 -0.3745 -0.7887
vn -0.5460 -0.3378 -0.7666
vn -0.7199 0.1378 -0.6803
vn 0.0506 0.4918 -0.8692
vn 0.7346 0.0988 -0.6713
vn 0.2719 0.0988 -0.9572
vn 0.5164 0.1876 -0.8356
vn 0.4875 0.3745 -0.7887
vn -0.1064 0.1638 -0.9807
vn -0.2166 0.3333 -0.9176
vn -0.5460 0.3378 -0.7666
vn -0.3313 -0.0000 -0.9435
vn -0.6071 -0.0000 -0.7947
vn -0.7199 -0.1378 -0.6803
vn -0.1064 -0.1638 -0.9807
vn -0.2166 -0.3333 -0.9176
vn 0.0506 -0.4918 -0.8692
vn 0.2719 -0.0988 -0.9572
vn 0.5164 -0.1876 -0.8356
vn 0.7346 -0.0988 -0.6713
vn 0.9248 0.1638 -0.3434
vn 0.9176 0.3333 -0.2166
vn 0.7548 0.4918 -0.4340
vn -0.0429 0.8184 -0.5731
vn -0.5164 0.7947 -0.3192
vn -0.7233 0.5263 -0.4470
vn -0.9304 0.1378 -0.3397
vn -0.9822 -0.0000 -0.1876
vn -0.9304 -0.1378 -0.3397
vn -0.7233 -0.5263 -0.4470
vn -0.5164 -0.7947 -0.3192
vn -0.0429 -0.8184 -0.5731
vn 0.7548 -0.4918 -0.4340
vn 0.9176 -0.3333 -0.2166
vn 0.9248 -0.1638 -0.3434
vn 0.5318 0.8184 -0.2179
vn 0.5164 0.7947 0.3192
vn 0.0429 0.8184 0.5731
vn -0.9299 0.3378 -0.1456
vn -0.9176 0.3333 0.2166
vn -0.9248 0.1638 0.3434
vn -0.9299 -0.3378 -0.1456
vn -0.9176 -0.3333 0.2166
vn -0.7548 -0.4918 0.4340
vn 0.5318 -0.8184 -0.2179
vn 0.5164 -0.7947 0.3192
vn 0.7233 -0.5263 0.4470
vn 0.9921 -0.0000 -0.1256
vn 0.9822 -0.0000 0.1876
vn 0.9304 0.1378 0.3397
vn 0.5460 0.3378 0.7666
vn 0.2166 0.3333 0.9176
vn -0.0506 0.4918 0.8692
vn -0.4875 0.3745 0.7887
vn -0.5164 0.1876 0.8356
vn -0.7346 0.0988 0.6713
vn -0.7346 -0.0988 0.6713
vn -0.5164 -0.1876 0.8356
vn -0.4875 -0.3745 0.7887
vn 0.7199 0.1378 0.6803
vn 0.6071 -0.0000 0.7947
vn 0.3313 -0.0000 0.9435
vn -0.0506 -0.4918 0.8692
vn 0.2166 -0.3333 0.9176
vn 0.5460 -0.3378 0.7666
vt 0.181819 0.000000
vt 0.227273 0.078731
vt 0.136365 0.078731
vt 0.272728 0.157461
vt 0.318182 0.078731
vt 0.363637 0.157461
vt 0.909091 0.000000
vt 0.954545 0.078731
vt 0.863636 0.078731
vt 0.727273 0.000000
vt 0.772727 0.078731
vt 0.681818 0.078731
vt 0.545455 0.000000
vt 0.590909 0.078731
vt 0.500000 0.078731
vt 0.318182 0.236191
vt 0.090910 0.157461
vt 0.181819 0.157461
vt 0.136365 0.236191
vt 0.818182 0.157461
vt 0.909091 0.157461
vt 0.863636 0.236191
vt 0.636364 0.157461
vt 0.727273 0.157461
vt 0.681818 0.236191
vt 0.454546 0.157461
vt 0.545455 0.157461
vt 0.500000 0.236191
vt 0.227273 0.236191
vt 0.045455 0.236191
vt 0.772727 0.236191
vt 0.590909 0.236191
vt 0.409092 0.236191
vt 0.181819 0.314921
vt 0.272728 0.314921
vt 0.227273 0.393651
vt 0.000000 0.314921
vt 0.090910 0.314921
vt 0.045455 0.393651
vt 0.727273 0.314921
vt 0.818182 0.314921
vt 0.772727 0.393651
vt 0.545455 0.314921
vt 0.636364 0.314921
vt 0.590909 0.393651
vt 0.363637 0.314921
vt 0.454546 0.314921
vt 0.409092 0.393651
vt 0.500000 0.393651
vt 0.454546 0.472382
vt 0.681818 0.393651
vt 0.636364 0.472382
vt 0.863636 0.393651
vt 0.818182 0.472382
vt 0.909091 0.314921
vt 0.136365 0.393651
vt 0.090910 0.472382
vt 0.318182 0.393651
vt 0.272728 0.472382
vt 0.954545 0.236191
vt 1.000000 0.157461
vt 0.409092 0.078731
vt 0.363637 0.000000
s 0
usemtl Black
f 13/2/21 26/3/21 25/4/21
f 14/5/22 26/6/22 28/7/22
f 13/8/23 25/9/23 30/10/23
f 13/11/24 30/12/24 32/13/24
f 13/14/25 32/15/25 29/16/25
f 14/5/26 28/7/26 35/17/26
f 15/18/27 27/19/27 37/20/27
f 16/21/28 31/22/28 39/23/28
f 17/24/29 33/25/29 41/26/29
f 18/27/30 34/28/30 43/29/30
f 14/5/31 35/17/31 38/30/31
f 15/18/32 37/20/32 40/31/32
f 16/21/33 39/23/33 42/32/33
f 17/24/34 41/26/34 44/33/34
f 18/27/35 43/29/35 36/34/35
f 19/35/36 45/36/36 50/37/36
f 20/38/37 46/39/37 52/40/37
f 21/41/38 47/42/38 53/43/38
f 22/44/39 48/45/39 54/46/39
f 23/47/40 49/48/40 51/49/40
f 51/49/41 54/50/41 24/51/41
f 51/49/42 49/48/42 54/50/42
f 49/48/43 22/44/43 54/50/43
f 54/46/44 53/52/44 24/53/44
f 54/46/45 48/45/45 53/52/45
f 48/45/46 21/41/46 53/52/46
f 53/43/47 52/54/47 24/55/47
f 53/43/48 47/42/48 52/54/48
f 47/42/49 20/56/49 52/54/49
f 52/40/50 50/57/50 24/58/50
f 52/40/51 46/39/51 50/57/51
f 46/39/52 19/35/52 50/57/52
f 50/37/53 51/59/53 24/60/53
f 50/37/54 45/36/54 51/59/54
f 45/36/55 23/47/55 51/59/55
f 36/34/56 49/48/56 23/47/56
f 36/34/57 43/29/57 49/48/57
f 43/29/58 22/44/58 49/48/58
f 44/33/59 48/45/59 22/44/59
f 44/33/60 41/26/60 48/45/60
f 41/26/61 21/41/61 48/45/61
f 42/32/62 47/42/62 21/41/62
f 42/32/63 39/23/63 47/42/63
f 39/23/64 20/56/64 47/42/64
f 40/31/65 46/39/65 20/38/65
f 40/31/66 37/20/66 46/39/66
f 37/20/67 19/35/67 46/39/67
f 38/30/68 45/36/68 19/35/68
f 38/30/69 35/17/69 45/36/69
f 35/17/70 23/47/70 45/36/70
f 43/29/71 44/33/71 22/44/71
f 43/29/72 34/28/72 44/33/72
f 34/28/73 17/24/73 44/33/73
f 41/26/74 42/32/74 21/41/74
f 41/26/75 33/25/75 42/32/75
f 33/25/76 16/21/76 42/32/76
f 39/23/77 40/61/77 20/56/77
f 39/23/78 31/22/78 40/61/78
f 31/22/79 15/62/79 40/61/79
f 37/20/80 38/30/80 19/35/80
f 37/20/81 27/19/81 38/30/81
f 27/19/82 14/5/82 38/30/82
f 35/17/83 36/34/83 23/47/83
f 35/17/84 28/7/84 36/34/84
f 28/7/85 18/27/85 36/34/85
f 29/16/86 34/28/86 18/27/86
f 29/16/87 32/15/87 34/28/87
f 32/15/88 17/24/88 34/28/88
f 32/13/89 33/25/89 17/24/89
f 32/13/90 30/12/90 33/25/90
f 30/12/91 16/21/91 33/25/91
f 30/10/92 31/22/92 16/21/92
f 30/10/93 25/9/93 31/22/93
f 25/9/94 15/62/94 31/22/94
f 28/7/95 29/63/95 18/27/95
f 28/7/96 26/6/96 29/63/96
f 26/6/97 13/64/97 29/63/97
f 25/4/98 27/19/98 15/18/98
f 25/4/99 26/3/99 27/19/99
f 26/3/100 14/5/100 27/19/100
f 55/2/101 67/4/101 68/3/101
f 56/5/102 70/7/102 68/6/102
f 55/8/103 72/10/103 67/9/103
f 55/11/104 74/13/104 72/12/104
f 55/14/105 71/16/105 74/15/105
f 56/5/106 77/17/106 70/7/106
f 57/18/107 79/20/107 69/19/107
f 58/21/108 81/23/108 73/22/108
f 59/24/109 83/26/109 75/25/109
f 60/27/110 85/29/110 76/28/110
f 56/5/111 80/30/111 77/17/111
f 57/18/112 82/31/112 79/20/112
f 58/21/113 84/32/113 81/23/113
f 59/24/114 86/33/114 83/26/114
f 60/27/115 78/34/115 85/29/115
f 61/35/116 92/37/116 87/36/116
f 62/38/117 94/40/117 88/39/117
f 63/41/118 95/43/118 89/42/118
f 64/44/119 96/46/119 90/45/119
f 65/47/120 93/49/120 91/48/120
f 93/49/121 66/51/121 96/50/121
f 93/49/122 96/50/122 91/48/122
f 91/48/123 96/50/123 64/44/123
f 96/46/124 66/53/124 95/52/124
f 96/46/125 95/52/125 90/45/125
f 90/45/126 95/52/126 63/41/126
f 95/43/127 66/55/127 94/54/127
f 95/43/128 94/54/128 89/42/128
f 89/42/129 94/54/129 62/56/129
f 94/40/130 66/58/130 92/57/130
f 94/40/131 92/57/131 88/39/131
f 88/39/132 92/57/132 61/35/132
f 92/37/133 66/60/133 93/59/133
f 92/37/134 93/59/134 87/36/134
f 87/36/135 93/59/135 65/47/135
f 78/34/136 65/47/136 91/48/136
f 78/34/137 91/48/137 85/29/137
f 85/29/138 91/48/138 64/44/138
f 86/33/139 64/44/139 90/45/139
f 86/33/140 90/45/140 83/26/140
f 83/26/141 90/45/141 63/41/141
f 84/32/142 63/41/142 89/42/142
f 84/32/143 89/42/143 81/23/143
f 81/23/144 89/42/144 62/56/144
f 82/31/145 62/38/145 88/39/145
f 82/31/146 88/39/146 79/20/146
f 79/20/147 88/39/147 61/35/147
f 80/30/148 61/35/148 87/36/148
f 80/30/149 87/36/149 77/17/149
f 77/17/150 87/36/150 65/47/150
f 85/29/151 64/44/151 86/33/151
f 85/29/152 86/33/152 76/28/152
f 76/28/153 86/33/153 59/24/153
f 83/26/154 63/41/154 84/32/154
f 83/26/155 84/32/155 75/25/155
f 75/25/156 84/32/156 58/21/156
f 81/23/157 62/56/157 82/61/157
f 81/23/158 82/61/158 73/22/158
f 73/22/159 82/61/159 57/62/159
f 79/20/160 61/35/160 80/30/160
f 79/20/161 80/30/161 69/19/161
f 69/19/162 80/30/162 56/5/162
f 77/17/163 65/47/163 78/34/163
f 77/17/164 78/34/164 70/7/164
f 70/7/165 78/34/165 60/27/165
f 71/16/166 60/27/166 76/28/166
f 71/16/167 76/28/167 74/15/167
f 74/15/168 76/28/168 59/24/168
f 74/13/169 59/24/169 75/25/169
f 74/13/170 75/25/170 72/12/170
f 72/12/171 75/25/171 58/21/171
f 72/10/172 58/21/172 73/22/172
f 72/10/173 73/22/173 67/9/173
f 67/9/174 73/22/174 57/62/174
f 70/7/175 60/27/175 71/63/175
f 70/7/176 71/63/176 68/6/176
f 68/6/177 71/63/177 55/64/177
f 67/4/178 57/18/178 69/19/178
f 67/4/179 69/19/179 68/3/179
f 68/3/180 69/19/180 56/5/180
