# Blender 5.1.0
# www.blender.org
mtllib trashbag.mtl
o sacP1
v -0.433932 0.342382 0.385733
v 0.059152 1.493980 -0.123462
v -0.433932 0.342382 -0.391989
v 0.081042 1.533432 -0.268863
v 0.343790 0.342382 0.385733
v 0.207345 1.511690 -0.117785
v 0.343790 0.342382 -0.391989
v 0.243346 1.558734 -0.281474
v -0.519145 0.335855 -0.000629
v -0.490919 0.663884 0.412086
v 0.085597 1.540887 -0.195205
v -0.451135 0.690687 -0.472914
v -0.045071 0.336169 -0.474699
v 0.186982 1.573582 -0.292404
v 0.411202 0.690687 -0.472914
v 0.429003 0.335855 -0.000629
v 0.254621 1.565497 -0.220630
v 0.400777 0.663884 0.412086
v -0.045071 0.336433 0.473441
v 0.144542 1.527147 -0.120726
v -0.625008 0.677188 -0.037740
v -0.004863 0.704473 -0.610050
v 0.549732 0.677188 -0.037740
v -0.045071 0.670403 0.558424
v -0.045071 0.322407 -0.018257
v -0.296094 1.286286 0.169751
v -0.252026 1.391791 -0.219563
v -0.198328 1.312623 -0.500239
v 0.148834 1.402664 -0.572034
v 0.424997 1.312623 -0.500239
v 0.491230 1.391754 -0.219566
v 0.394909 1.286286 0.169751
v 0.089744 1.382594 0.177839
v 0.230521 1.726670 -0.244173
v 0.244127 1.736426 -0.232556
v 0.178114 1.709942 -0.193214
v 0.211758 1.705265 -0.154011
v 0.266639 1.723043 -0.206571
v 0.175168 1.695755 -0.155293
v 0.180851 1.710926 -0.231963
v 0.263482 1.721745 -0.238539
v 0.249857 1.701870 -0.152355
vn -0.5310 -0.6676 0.5219
vn -0.4151 0.8178 0.3985
vn -0.5113 -0.6801 -0.5254
vn -0.5111 0.7929 -0.3319
vn 0.5310 -0.6676 0.5219
vn 0.4054 0.6362 0.6564
vn 0.4961 -0.7154 -0.4920
vn 0.5857 0.5954 -0.5500
vn -0.6550 -0.7553 0.0241
vn -0.7205 0.1143 0.6840
vn -0.7262 0.6846 0.0637
vn -0.6902 0.0247 -0.7232
vn -0.0241 -0.7715 -0.6358
vn -0.0644 0.6051 -0.7936
vn 0.7027 -0.1556 -0.6943
vn 0.6428 -0.7654 0.0299
vn 0.9241 0.3442 0.1662
vn 0.6933 0.0512 0.7188
vn -0.0000 -0.7434 0.6688
vn -0.0692 0.5586 0.8266
vn -0.9967 0.0764 -0.0263
vn -0.0134 -0.1383 -0.9903
vn 0.9936 -0.1100 0.0269
vn -0.0029 0.1235 0.9923
vn -0.0000 -1.0000 -0.0010
vn -0.5665 0.6618 0.4909
vn -0.6734 0.7333 -0.0933
vn -0.5615 0.4886 -0.6678
vn 0.0231 0.5401 -0.8413
vn 0.6894 0.2958 -0.6612
vn 0.8592 0.5116 0.0031
vn 0.6038 0.4958 0.6242
vn 0.0135 0.7354 0.6775
vn -0.1594 0.6709 -0.7242
vn 0.0920 0.9699 -0.2254
vn -0.6004 0.7901 0.1236
vn -0.0914 0.6773 0.7300
vn 0.7834 0.5735 0.2394
vn -0.5045 0.5985 0.6223
vn -0.5732 0.7043 -0.4188
vn 0.7342 0.4069 -0.5434
vn 0.5548 0.4343 0.7096
vt 0.458618 0.000000
vt 0.375000 0.125000
vt 0.375000 0.000000
vt 0.625000 0.000000
vt 0.458618 0.125000
vt 0.625000 0.125000
vt 0.458618 0.250000
vt 0.375000 0.250000
vt 0.375000 0.375000
vt 0.625000 0.250000
vt 0.458618 0.375000
vt 0.625000 0.500000
vt 0.458618 0.500000
vt 0.375000 0.500000
vt 0.458618 0.625000
vt 0.375000 0.625000
vt 0.625000 0.625000
vt 0.625000 0.750000
vt 0.458618 0.750000
vt 0.375000 0.750000
vt 0.458618 0.875000
vt 0.375000 0.875000
vt 0.625000 0.875000
vt 0.625000 1.000000
vt 0.458618 1.000000
vt 0.375000 1.000000
vt 0.125000 0.500000
vt 0.250000 0.625000
vt 0.125000 0.625000
vt 0.250000 0.500000
vt 0.250000 0.750000
vt 0.125000 0.750000
vt 0.808286 0.654493
vt 0.797319 0.678915
vt 0.760448 0.607312
vt 0.802588 0.610354
vt 0.719869 0.638813
vt 0.724404 0.609778
vt 0.723815 0.684021
vt 0.764099 0.683722
vt 0.875000 0.625000
vt 0.875000 0.750000
vt 0.750000 0.500000
vt 0.875000 0.500000
vt 0.750000 0.750000
vt 0.750000 0.625000
vt 0.625000 0.375000
s 1
usemtl Material.009
f 10/1/10 9/2/9 1/3/1
f 26/4/26 21/5/21 10/1/10
f 27/6/27 12/7/12 21/5/21
f 21/5/21 3/8/3 9/2/9
f 12/7/12 13/9/13 3/8/3
f 28/10/28 22/11/22 12/7/12
f 22/11/22 30/12/30 15/13/15
f 22/11/22 7/14/7 13/9/13
f 7/14/7 23/15/23 16/16/16
f 15/13/15 31/17/31 23/15/23
f 23/15/23 32/18/32 18/19/18
f 16/16/16 18/19/18 5/20/5
f 5/20/5 24/21/24 19/22/19
f 18/19/18 33/23/33 24/21/24
f 24/21/24 26/24/26 10/25/10
f 24/21/24 1/26/1 19/22/19
f 3/27/3 25/28/25 9/29/9
f 7/14/7 25/28/25 13/30/13
f 25/28/25 5/20/5 19/31/19
f 25/28/25 1/32/1 9/29/9
f 11/33/11 39/34/39 36/33/36
f 14/35/14 40/36/40 34/35/34
f 17/37/17 41/38/41 38/37/38
f 6/39/6 37/40/37 20/40/20
f 2/34/2 27/41/27 26/42/26
f 4/36/4 27/41/27 11/33/11
f 4/36/4 29/43/29 28/44/28
f 8/38/8 29/43/29 14/35/14
f 8/38/8 31/17/31 30/12/30
f 6/39/6 31/17/31 17/37/17
f 6/39/6 33/45/33 32/18/32
f 2/34/2 33/45/33 20/40/20
f 41/38/41 35/46/35 38/37/38
f 34/35/34 36/33/36 35/46/35
f 36/33/36 37/40/37 35/46/35
f 38/37/38 37/40/37 42/39/42
f 20/40/20 39/34/39 2/34/2
f 17/37/17 42/39/42 6/39/6
f 8/38/8 34/35/34 41/38/41
f 11/33/11 40/36/40 4/36/4
f 10/1/10 21/5/21 9/2/9
f 26/4/26 27/6/27 21/5/21
f 27/6/27 28/10/28 12/7/12
f 21/5/21 12/7/12 3/8/3
f 12/7/12 22/11/22 13/9/13
f 28/10/28 29/47/29 22/11/22
f 22/11/22 29/47/29 30/12/30
f 22/11/22 15/13/15 7/14/7
f 7/14/7 15/13/15 23/15/23
f 15/13/15 30/12/30 31/17/31
f 23/15/23 31/17/31 32/18/32
f 16/16/16 23/15/23 18/19/18
f 5/20/5 18/19/18 24/21/24
f 18/19/18 32/18/32 33/23/33
f 24/21/24 33/23/33 26/24/26
f 24/21/24 10/25/10 1/26/1
f 3/27/3 13/30/13 25/28/25
f 7/14/7 16/16/16 25/28/25
f 25/28/25 16/16/16 5/20/5
f 25/28/25 19/31/19 1/32/1
f 11/33/11 2/34/2 39/34/39
f 14/35/14 4/36/4 40/36/40
f 17/37/17 8/38/8 41/38/41
f 6/39/6 42/39/42 37/40/37
f 2/34/2 11/33/11 27/41/27
f 4/36/4 28/44/28 27/41/27
f 4/36/4 14/35/14 29/43/29
f 8/38/8 30/12/30 29/43/29
f 8/38/8 17/37/17 31/17/31
f 6/39/6 32/18/32 31/17/31
f 6/39/6 20/40/20 33/45/33
f 2/34/2 26/42/26 33/45/33
f 41/38/41 34/35/34 35/46/35
f 34/35/34 40/36/40 36/33/36
f 36/33/36 39/34/39 37/40/37
f 38/37/38 35/46/35 37/40/37
f 20/40/20 37/40/37 39/34/39
f 17/37/17 38/37/38 42/39/42
f 8/38/8 14/35/14 34/35/34
f 11/33/11 36/33/36 40/36/40
