# Blender 5.1.0
# www.blender.org
mtllib trashcan.mtl
o P-couvercle-ouvert
v 0.000000 0.141320 -0.415699
v 0.000000 2.246055 -1.000000
v 0.159081 0.141320 -0.384056
v 0.382683 2.246055 -0.923880
v 0.293944 0.141320 -0.293944
v 0.707107 2.246055 -0.707107
v 0.384056 0.141320 -0.159081
v 0.923880 2.246055 -0.382683
v 0.415699 0.141320 0.000000
v 1.000000 2.246055 0.000000
v 0.384056 0.141320 0.159081
v 0.923880 2.246055 0.382683
v 0.293944 0.141320 0.293944
v 0.707107 2.246055 0.707107
v 0.159081 0.141320 0.384056
v 0.382683 2.246055 0.923880
v 0.000000 0.141320 0.415699
v 0.000000 2.246055 1.000000
v -0.159081 0.141320 0.384056
v -0.382683 2.246055 0.923880
v -0.293944 0.141320 0.293944
v -0.707107 2.246055 0.707107
v -0.384056 0.141320 0.159081
v -0.923880 2.246055 0.382683
v -0.415699 0.141320 0.000000
v -1.000000 2.246055 0.000000
v -0.384056 0.141320 -0.159081
v -0.923880 2.246055 -0.382683
v -0.293944 0.141320 -0.293944
v -0.707107 2.246055 -0.707107
v -0.159081 0.141320 -0.384056
v -0.382683 2.246055 -0.923880
v 0.096272 0.344212 -0.980850
v 0.286412 0.344212 -0.943029
v 0.761640 0.344212 -0.625492
v 0.869346 0.344212 -0.464299
v 0.980850 0.344212 0.096272
v 0.943029 0.344212 0.286412
v 0.625492 0.344212 0.761640
v 0.464299 0.344212 0.869346
v -0.096272 0.344212 0.980850
v -0.286412 0.344212 0.943029
v -0.761640 0.344212 0.625492
v -0.869346 0.344212 0.464299
v -0.980850 0.344212 -0.096272
v -0.943029 0.344212 -0.286412
v -0.625492 0.344212 -0.761640
v -0.464299 0.344212 -0.869346
v 0.000000 0.246055 -1.000000
v 0.382683 0.246055 -0.923880
v 0.286412 2.147897 -0.943029
v 0.096272 2.147897 -0.980850
v 0.707107 0.246055 -0.707107
v 0.761640 2.147897 -0.625492
v 0.923880 0.246055 -0.382683
v 0.869346 2.147897 -0.464299
v 1.000000 0.246055 0.000000
v 0.980850 2.147897 0.096272
v 0.923880 0.246055 0.382683
v 0.943029 2.147897 0.286412
v 0.707107 0.246055 0.707107
v 0.625492 2.147897 0.761640
v 0.382683 0.246055 0.923880
v 0.464299 2.147897 0.869346
v 0.000000 0.246055 1.000000
v -0.096272 2.147897 0.980850
v -0.382683 0.246055 0.923880
v -0.286412 2.147897 0.943029
v -0.707107 0.246055 0.707107
v -0.761640 2.147897 0.625492
v -0.923880 0.246055 0.382683
v -0.869346 2.147897 0.464299
v -1.000000 0.246055 0.000000
v -0.980850 2.147897 -0.096272
v -0.923880 0.246055 -0.382683
v -0.943029 2.147897 -0.286412
v -0.707107 0.246055 -0.707107
v -0.625492 2.147897 -0.761640
v -0.382683 0.246055 -0.923880
v -0.464299 2.147897 -0.869346
v 0.297257 2.147897 -0.997550
v 0.107116 2.147897 -1.035371
v 0.915567 2.147897 -0.495182
v 0.807861 2.147897 -0.656375
v 0.997550 2.147897 0.297257
v 1.035371 2.147897 0.107116
v 0.495182 2.147897 0.915567
v 0.656375 2.147897 0.807861
v -0.297257 2.147897 0.997550
v -0.107116 2.147897 1.035371
v -0.915567 2.147897 0.495182
v -0.807861 2.147897 0.656375
v -0.997550 2.147897 -0.297257
v -1.035371 2.147897 -0.107116
v -0.495182 2.147897 -0.915567
v -0.656375 2.147897 -0.807861
v 0.107116 0.344212 -1.035371
v 0.297257 0.344212 -0.997550
v 0.807861 0.344212 -0.656375
v 0.915567 0.344212 -0.495182
v 1.035371 0.344212 0.107116
v 0.997550 0.344212 0.297257
v 0.656375 0.344212 0.807861
v 0.495182 0.344212 0.915567
v -0.107116 0.344212 1.035371
v -0.297257 0.344212 0.997550
v -0.807861 0.344212 0.656375
v -0.915567 0.344212 0.495182
v -1.035371 0.344212 -0.107116
v -0.997550 0.344212 -0.297257
v -0.656375 0.344212 -0.807861
v -0.495182 0.344212 -0.915567
v -0.000000 2.246055 -0.940000
v 0.359723 2.246055 -0.868447
v 0.664680 2.246055 -0.664681
v 0.868447 2.246055 -0.359722
v 0.940000 2.246055 -0.000000
v 0.868447 2.246055 0.359723
v 0.664681 2.246055 0.664680
v 0.359722 2.246055 0.868447
v 0.000000 2.246055 0.940000
v -0.359723 2.246055 0.868447
v -0.664680 2.246055 0.664681
v -0.868447 2.246055 0.359722
v -0.940000 2.246055 0.000000
v -0.868447 2.246055 -0.359723
v -0.664681 2.246055 -0.664680
v -0.359722 2.246055 -0.868447
v 0.103427 0.362303 -0.924092
v 0.258081 0.362303 -0.893329
v 0.726566 0.362303 -0.580298
v 0.814170 0.362303 -0.449189
v 0.924092 0.362303 0.103427
v 0.893329 0.362303 0.258081
v 0.580298 0.362303 0.726566
v 0.449189 0.362303 0.814170
v -0.103427 0.362303 0.924092
v -0.258081 0.362303 0.893329
v -0.726566 0.362303 0.580298
v -0.814170 0.362303 0.449189
v -0.924092 0.362303 -0.103427
v -0.893329 0.362303 -0.258081
v -0.580298 0.362303 -0.726566
v -0.449189 0.362303 -0.814170
v -0.000000 0.278730 -0.949678
v 0.363426 0.278730 -0.877388
v 0.258081 2.129806 -0.893329
v 0.103427 2.129806 -0.924092
v 0.671524 0.278730 -0.671524
v 0.726566 2.129806 -0.580298
v 0.877388 0.278730 -0.363426
v 0.814170 2.129806 -0.449189
v 0.949678 0.278730 -0.000000
v 0.924092 2.129806 0.103427
v 0.877388 0.278730 0.363426
v 0.893329 2.129806 0.258081
v 0.671524 0.278730 0.671524
v 0.580298 2.129806 0.726566
v 0.363426 0.278730 0.877388
v 0.449189 2.129806 0.814170
v 0.000000 0.278730 0.949678
v -0.103427 2.129806 0.924092
v -0.363426 0.278730 0.877388
v -0.258081 2.129806 0.893329
v -0.671524 0.278730 0.671524
v -0.726566 2.129806 0.580298
v -0.877388 0.278730 0.363426
v -0.814170 2.129806 0.449189
v -0.949678 0.278730 0.000000
v -0.924092 2.129806 -0.103427
v -0.877388 0.278730 -0.363426
v -0.893329 2.129806 -0.258081
v -0.671524 0.278730 -0.671524
v -0.580298 2.129806 -0.726566
v -0.363426 0.278730 -0.877388
v -0.449189 2.129806 -0.814170
v 0.256523 2.113256 -0.970333
v 0.134334 2.113256 -0.994638
v 0.867518 2.113256 -0.504740
v 0.798303 2.113256 -0.608327
v 0.970333 2.113256 0.256523
v 0.994638 2.113256 0.134334
v 0.504740 2.113256 0.867518
v 0.608327 2.113256 0.798303
v -0.256523 2.113256 0.970333
v -0.134334 2.113256 0.994638
v -0.867518 2.113256 0.504740
v -0.798303 2.113256 0.608327
v -0.970333 2.113256 -0.256523
v -0.994638 2.113256 -0.134334
v -0.504740 2.113256 -0.867518
v -0.608327 2.113256 -0.798303
v 0.134334 0.378853 -0.994638
v 0.256523 0.378853 -0.970333
v 0.798303 0.378853 -0.608327
v 0.867518 0.378853 -0.504740
v 0.994638 0.378853 0.134334
v 0.970333 0.378853 0.256523
v 0.608327 0.378853 0.798303
v 0.504740 0.378853 0.867518
v -0.134334 0.378853 0.994638
v -0.256523 0.378853 0.970333
v -0.798303 0.378853 0.608327
v -0.867518 0.378853 0.504740
v -0.994638 0.378853 -0.134334
v -0.970333 0.378853 -0.256523
v -0.608327 0.378853 -0.798303
v -0.504740 0.378853 -0.867518
v 0.199343 1.926150 -0.199343
v 0.000000 1.926150 -0.281914
v 0.281914 1.926150 0.000000
v 0.199343 1.926150 0.199343
v 0.000000 1.926150 0.281914
v -0.199343 1.926150 0.199343
v -0.281914 1.926150 0.000000
v -0.199343 1.926150 -0.199343
v -0.202934 2.063721 -0.883395
v 0.000000 2.020504 -0.752092
v 0.202934 2.063721 -0.883395
v 0.481159 2.063721 -0.768150
v 0.531810 2.020504 -0.531810
v 0.768150 2.063721 -0.481159
v 0.883395 2.063721 -0.202934
v 0.752092 2.020504 0.000000
v 0.883395 2.063721 0.202934
v 0.768150 2.063721 0.481159
v 0.531810 2.020504 0.531810
v 0.481159 2.063721 0.768150
v 0.202934 2.063721 0.883395
v 0.000000 2.020504 0.752092
v -0.202934 2.063721 0.883395
v -0.481159 2.063721 0.768150
v -0.531810 2.020504 0.531810
v -0.768150 2.063721 0.481159
v -0.883395 2.063721 0.202934
v -0.752092 2.020504 0.000000
v -0.883395 2.063721 -0.202934
v -0.768150 2.063721 -0.481159
v -0.531810 2.020504 -0.531810
v -0.481159 2.063721 -0.768150
v -0.206341 2.309187 -0.485074
v -0.206341 2.325459 -0.756472
v -0.092805 2.309187 -0.462491
v 0.011055 2.325459 -0.713230
v 0.003446 2.309187 -0.398178
v 0.195354 2.325459 -0.590085
v 0.067759 2.309187 -0.301926
v 0.318498 2.325459 -0.405786
v 0.090343 2.309187 -0.188390
v 0.361741 2.325459 -0.188390
v 0.067759 2.309187 -0.074854
v 0.318498 2.325459 0.029005
v 0.003446 2.309187 0.021397
v 0.195354 2.325459 0.213304
v -0.092805 2.309187 0.085710
v 0.011055 2.325459 0.336449
v -0.206341 2.309187 0.108294
v -0.206341 2.325459 0.379692
v -0.319877 2.309187 0.085710
v -0.423737 2.325459 0.336449
v -0.416128 2.309187 0.021397
v -0.608036 2.325459 0.213304
v -0.480441 2.309187 -0.074854
v -0.731180 2.325459 0.029005
v -0.503025 2.309187 -0.188390
v -0.774423 2.325459 -0.188390
v -0.480441 2.309187 -0.301926
v -0.731180 2.325459 -0.405786
v -0.416128 2.309187 -0.398178
v -0.608036 2.325459 -0.590085
v -0.319877 2.309187 -0.462491
v -0.423737 2.325459 -0.713230
v 0.149494 2.325459 -1.047453
v -0.206341 2.325459 -1.118233
v 0.451157 2.325459 -0.845888
v 0.652721 2.325459 -0.544226
v 0.723502 2.325459 -0.188390
v 0.652721 2.325459 0.167445
v 0.451157 2.325459 0.469108
v 0.149494 2.325459 0.670672
v -0.206341 2.325459 0.741452
v -0.562176 2.325459 0.670672
v -0.863839 2.325459 0.469108
v -1.065403 2.325459 0.167445
v -1.136183 2.325459 -0.188390
v -1.065403 2.325459 -0.544226
v -0.863839 2.325459 -0.845888
v -0.562176 2.325459 -1.047453
v -0.117177 2.358843 -0.403651
v -0.206341 2.358843 -0.421387
v -0.041587 2.358843 -0.353144
v 0.008920 2.358843 -0.277554
v 0.026656 2.358843 -0.188390
v 0.008920 2.358843 -0.099226
v -0.041587 2.358843 -0.023637
v -0.117177 2.358843 0.026871
v -0.206341 2.358843 0.044606
v -0.295505 2.358843 0.026871
v -0.371095 2.358843 -0.023637
v -0.421602 2.358843 -0.099226
v -0.439338 2.358843 -0.188390
v -0.421602 2.358843 -0.277554
v -0.371095 2.358843 -0.353144
v -0.295505 2.358843 -0.403651
v 0.011055 2.281741 -0.713230
v -0.206341 2.281741 -0.756472
v 0.195354 2.281741 -0.590085
v 0.318498 2.281741 -0.405786
v 0.361741 2.281741 -0.188390
v 0.318498 2.281741 0.029005
v 0.195354 2.281741 0.213304
v 0.011055 2.281741 0.336449
v -0.206341 2.281741 0.379692
v -0.423737 2.281741 0.336449
v -0.608036 2.281741 0.213304
v -0.731180 2.281741 0.029005
v -0.774423 2.281741 -0.188390
v -0.731180 2.281741 -0.405786
v -0.608036 2.281741 -0.590085
v -0.423737 2.281741 -0.713230
v -0.143642 2.415075 -0.339760
v -0.206341 2.415075 -0.352231
v -0.090488 2.415075 -0.304243
v -0.054972 2.415075 -0.251090
v -0.042500 2.415075 -0.188390
v -0.054972 2.415075 -0.125691
v -0.090488 2.415075 -0.072537
v -0.143642 2.415075 -0.037021
v -0.206341 2.415075 -0.024549
v -0.269040 2.415075 -0.037021
v -0.322194 2.415075 -0.072537
v -0.357710 2.415075 -0.125691
v -0.370182 2.415075 -0.188390
v -0.357710 2.415075 -0.251090
v -0.322194 2.415075 -0.304243
v -0.269040 2.415075 -0.339760
v -0.117177 2.406000 -0.403651
v -0.206341 2.406000 -0.421387
v -0.041587 2.406000 -0.353144
v 0.008920 2.406000 -0.277554
v 0.026656 2.406000 -0.188390
v 0.008920 2.406000 -0.099226
v -0.041587 2.406000 -0.023637
v -0.117177 2.406000 0.026871
v -0.206341 2.406000 0.044606
v -0.295505 2.406000 0.026871
v -0.371095 2.406000 -0.023637
v -0.421602 2.406000 -0.099226
v -0.439338 2.406000 -0.188390
v -0.421602 2.406000 -0.277554
v -0.371095 2.406000 -0.353144
v -0.295505 2.406000 -0.403651
v -0.206341 2.255013 -1.118233
v 0.149494 2.255013 -1.047453
v 0.451157 2.255013 -0.845888
v 0.652721 2.255013 -0.544226
v 0.723502 2.255013 -0.188390
v 0.652721 2.255013 0.167445
v 0.451157 2.255013 0.469108
v 0.149494 2.255013 0.670672
v -0.206341 2.255013 0.741452
v -0.562176 2.255013 0.670672
v -0.863839 2.255013 0.469108
v -1.065403 2.255013 0.167445
v -1.136183 2.255013 -0.188390
v -1.065403 2.255013 -0.544226
v -0.863839 2.255013 -0.845888
v -0.562176 2.255013 -1.047453
vn -0.0000 -0.9950 -0.0995
vn -0.0000 0.6657 -0.7462
vn 0.0381 -0.9950 -0.0920
vn 0.2856 0.6657 -0.6894
vn 0.0704 -0.9950 -0.0704
vn 0.5277 0.6657 -0.5276
vn 0.0920 -0.9950 -0.0381
vn 0.6894 0.6657 -0.2856
vn 0.0995 -0.9950 -0.0000
vn 0.7462 0.6657 -0.0000
vn 0.0920 -0.9950 0.0381
vn 0.6894 0.6657 0.2856
vn 0.0704 -0.9950 0.0704
vn 0.5276 0.6657 0.5277
vn 0.0381 -0.9950 0.0920
vn 0.2856 0.6657 0.6894
vn -0.0000 -0.9950 0.0995
vn -0.0000 0.6657 0.7462
vn -0.0381 -0.9950 0.0920
vn -0.2856 0.6657 0.6894
vn -0.0704 -0.9950 0.0704
vn -0.5277 0.6657 0.5276
vn -0.0920 -0.9950 0.0381
vn -0.6894 0.6657 0.2856
vn -0.0995 -0.9950 -0.0000
vn -0.7462 0.6657 -0.0000
vn -0.0920 -0.9950 -0.0381
vn -0.6894 0.6657 -0.2856
vn -0.0704 -0.9950 -0.0704
vn -0.5276 0.6657 -0.5277
vn -0.0381 -0.9950 -0.0920
vn -0.2856 0.6657 -0.6894
vn -0.1193 -0.3015 -0.9460
vn 0.4722 -0.3015 -0.8283
vn 0.5846 -0.3015 -0.7532
vn 0.9196 -0.3015 -0.2518
vn 0.9460 -0.3015 -0.1193
vn 0.8283 -0.3015 0.4722
vn 0.7532 -0.3015 0.5846
vn 0.2518 -0.3015 0.9196
vn 0.1193 -0.3015 0.9460
vn -0.4722 -0.3015 0.8283
vn -0.5846 -0.3015 0.7532
vn -0.9196 -0.3015 0.2518
vn -0.9460 -0.3015 0.1193
vn -0.8283 -0.3015 -0.4722
vn -0.7532 -0.3015 -0.5846
vn -0.2518 -0.3015 -0.9196
vn -0.0000 -0.6050 -0.7962
vn 0.3047 -0.6050 -0.7356
vn 0.4722 0.3015 -0.8283
vn -0.1193 0.3015 -0.9460
vn 0.5630 -0.6050 -0.5630
vn 0.5846 0.3015 -0.7532
vn 0.7356 -0.6050 -0.3047
vn 0.9196 0.3015 -0.2518
vn 0.7962 -0.6050 -0.0000
vn 0.9460 0.3015 -0.1193
vn 0.7356 -0.6050 0.3047
vn 0.8283 0.3015 0.4722
vn 0.5630 -0.6050 0.5630
vn 0.7532 0.3015 0.5846
vn 0.3047 -0.6050 0.7356
vn 0.2518 0.3015 0.9196
vn -0.0000 -0.6050 0.7962
vn 0.1193 0.3015 0.9460
vn -0.3047 -0.6050 0.7356
vn -0.4722 0.3015 0.8283
vn -0.5630 -0.6050 0.5630
vn -0.5846 0.3015 0.7532
vn -0.7356 -0.6050 0.3047
vn -0.9196 0.3015 0.2518
vn -0.7962 -0.6050 -0.0000
vn -0.9460 0.3015 0.1193
vn -0.7356 -0.6050 -0.3047
vn -0.8283 0.3015 -0.4722
vn -0.5630 -0.6050 -0.5630
vn -0.7532 0.3015 -0.5846
vn -0.3047 -0.6050 -0.7356
vn -0.2518 0.3015 -0.9196
vn 0.6789 0.5773 -0.4536
vn -0.4536 0.5773 -0.6789
vn 0.8008 0.5773 0.1593
vn 0.1593 0.5773 -0.8008
vn 0.4536 0.5773 0.6789
vn -0.1593 0.5773 0.8008
vn -0.6789 0.5773 0.4536
vn -0.8008 0.5773 -0.1593
vn -0.4536 -0.5773 -0.6789
vn 0.6789 -0.5773 -0.4536
vn 0.1593 -0.5773 -0.8008
vn 0.8008 -0.5773 0.1593
vn 0.4536 -0.5773 0.6789
vn -0.1593 -0.5773 0.8008
vn -0.6789 -0.5773 0.4536
vn -0.8008 -0.5773 -0.1593
vn 0.0059 0.7489 0.6627
vn -0.2591 0.7489 0.6099
vn -0.4644 0.7489 0.4728
vn -0.6145 0.7489 0.2481
vn -0.6627 0.7489 0.0059
vn -0.6099 0.7489 -0.2591
vn -0.4728 0.7489 -0.4644
vn -0.2481 0.7489 -0.6145
vn -0.0059 0.7489 -0.6627
vn 0.2591 0.7489 -0.6099
vn 0.4644 0.7489 -0.4728
vn 0.6145 0.7489 -0.2481
vn 0.6627 0.7489 -0.0059
vn 0.6099 0.7489 0.2591
vn 0.4728 0.7489 0.4644
vn 0.2481 0.7489 0.6145
vn 0.0304 0.2128 0.9766
vn -0.4018 0.2128 0.8906
vn -0.6691 0.2128 0.7121
vn -0.9139 0.2128 0.3456
vn -0.9766 0.2128 0.0304
vn -0.8907 0.2128 -0.4018
vn -0.7121 0.2128 -0.6691
vn -0.3456 0.2128 -0.9139
vn -0.0304 0.2128 -0.9766
vn 0.4018 0.2128 -0.8906
vn 0.6691 0.2128 -0.7121
vn 0.9139 0.2128 -0.3456
vn 0.9766 0.2128 -0.0304
vn 0.8907 0.2128 0.4018
vn 0.7121 0.2128 0.6691
vn 0.3456 0.2128 0.9139
vn -0.0118 -0.0153 0.9998
vn -0.3717 -0.0153 0.9282
vn -0.4275 -0.2525 0.8681
vn 0.0627 -0.2525 0.9656
vn -0.7153 -0.0153 0.6987
vn -0.6384 -0.2525 0.7271
vn -0.9192 -0.0153 0.3935
vn -0.9161 -0.2525 0.3115
vn -0.9998 -0.0153 -0.0118
vn -0.9656 -0.2525 0.0627
vn -0.9282 -0.0153 -0.3718
vn -0.8681 -0.2525 -0.4275
vn -0.6987 -0.0153 -0.7153
vn -0.7271 -0.2525 -0.6384
vn -0.3935 -0.0153 -0.9192
vn -0.3115 -0.2525 -0.9161
vn 0.0118 -0.0153 -0.9998
vn -0.0627 -0.2525 -0.9656
vn 0.3717 -0.0153 -0.9282
vn 0.4275 -0.2525 -0.8681
vn 0.7153 -0.0153 -0.6987
vn 0.6384 -0.2525 -0.7271
vn 0.9192 -0.0153 -0.3935
vn 0.9161 -0.2525 -0.3115
vn 0.9998 -0.0153 0.0118
vn 0.9656 -0.2525 -0.0627
vn 0.9282 -0.0153 0.3718
vn 0.8681 -0.2525 0.4275
vn 0.6987 -0.0153 0.7153
vn 0.7271 -0.2525 0.6384
vn 0.3935 -0.0153 0.9192
vn 0.3115 -0.2525 0.9161
vn -0.6373 -0.5128 0.5752
vn 0.3687 -0.5129 0.7753
vn -0.8573 -0.5129 -0.0439
vn -0.2875 -0.5128 0.8089
vn -0.5752 -0.5129 -0.6373
vn -0.7753 -0.5129 0.3687
vn 0.0439 -0.5129 -0.8574
vn -0.8089 -0.5129 -0.2875
vn 0.6373 -0.5128 -0.5752
vn -0.3687 -0.5129 -0.7753
vn 0.8573 -0.5129 0.0439
vn 0.2875 -0.5128 -0.8089
vn 0.5752 -0.5129 0.6373
vn 0.7753 -0.5129 -0.3687
vn -0.0439 -0.5129 0.8574
vn 0.8089 -0.5129 0.2875
vn 0.3687 0.5129 0.7753
vn -0.6373 0.5128 0.5752
vn -0.2875 0.5129 0.8089
vn -0.8574 0.5129 -0.0439
vn -0.7753 0.5129 0.3687
vn -0.5752 0.5128 -0.6373
vn -0.8089 0.5129 -0.2875
vn 0.0439 0.5128 -0.8574
vn -0.3687 0.5129 -0.7753
vn 0.6373 0.5128 -0.5752
vn 0.2875 0.5129 -0.8089
vn 0.8574 0.5129 0.0439
vn 0.7753 0.5129 -0.3687
vn 0.5752 0.5128 0.6373
vn 0.8089 0.5129 0.2875
vn -0.0439 0.5128 0.8574
vn -0.0871 0.9924 0.0871
vn -0.0000 0.9924 0.1232
vn -0.1232 0.9924 -0.0000
vn -0.0871 0.9924 -0.0871
vn -0.0000 0.9924 -0.1232
vn 0.0871 0.9924 -0.0871
vn 0.1232 0.9924 -0.0000
vn 0.0871 0.9924 0.0871
vn 0.0638 0.9730 0.2217
vn -0.0000 0.9724 0.2331
vn -0.0638 0.9730 0.2217
vn -0.1117 0.9730 0.2019
vn -0.1649 0.9724 0.1649
vn -0.2019 0.9730 0.1117
vn -0.2217 0.9730 0.0638
vn -0.2331 0.9724 -0.0000
vn -0.2217 0.9730 -0.0638
vn -0.2019 0.9730 -0.1117
vn -0.1649 0.9724 -0.1649
vn -0.1117 0.9730 -0.2019
vn -0.0638 0.9730 -0.2217
vn -0.0000 0.9724 -0.2331
vn 0.0638 0.9730 -0.2217
vn 0.1117 0.9730 -0.2019
vn 0.1649 0.9724 -0.1649
vn 0.2019 0.9730 -0.1117
vn 0.2217 0.9730 -0.0638
vn 0.2331 0.9724 -0.0000
vn 0.2217 0.9730 0.0638
vn 0.2019 0.9730 0.1117
vn 0.1649 0.9724 0.1649
vn 0.1117 0.9730 0.2019
vn -0.0000 -0.9988 0.0480
vn -0.0000 0.7538 0.6571
vn -0.0184 -0.9988 0.0443
vn -0.2515 0.7538 0.6071
vn -0.0339 -0.9988 0.0339
vn -0.4647 0.7538 0.4647
vn -0.0443 -0.9988 0.0184
vn -0.6071 0.7538 0.2515
vn -0.0480 -0.9988 -0.0000
vn -0.6571 0.7538 -0.0000
vn -0.0443 -0.9988 -0.0184
vn -0.6071 0.7538 -0.2515
vn -0.0339 -0.9988 -0.0339
vn -0.4647 0.7538 -0.4647
vn -0.0184 -0.9988 -0.0443
vn -0.2515 0.7538 -0.6071
vn -0.0000 -0.9988 -0.0480
vn -0.0000 0.7538 -0.6571
vn 0.0184 -0.9988 -0.0443
vn 0.2515 0.7538 -0.6071
vn 0.0339 -0.9988 -0.0339
vn 0.4647 0.7538 -0.4647
vn 0.0443 -0.9988 -0.0184
vn 0.6071 0.7538 -0.2515
vn 0.0480 -0.9988 -0.0000
vn 0.6571 0.7538 -0.0000
vn 0.0443 -0.9988 0.0184
vn 0.6071 0.7538 0.2515
vn 0.0339 -0.9988 0.0339
vn 0.4647 0.7538 0.4647
vn 0.0184 -0.9988 0.0443
vn 0.2515 0.7538 0.6071
vn 0.5276 0.6657 -0.5276
vn 0.5276 0.6657 0.5276
vn -0.5276 0.6657 0.5276
vn -0.5276 0.6657 -0.5276
vn 0.2864 0.6633 -0.6914
vn -0.0000 0.6633 -0.7483
vn 0.5291 0.6633 -0.5291
vn 0.6914 0.6633 -0.2864
vn 0.7483 0.6633 -0.0000
vn 0.6914 0.6633 0.2864
vn 0.5291 0.6633 0.5291
vn 0.2864 0.6633 0.6914
vn -0.0000 0.6633 0.7483
vn -0.2864 0.6633 0.6914
vn -0.5291 0.6633 0.5291
vn -0.6914 0.6633 0.2864
vn -0.7483 0.6633 -0.0000
vn -0.6914 0.6633 -0.2864
vn -0.5291 0.6633 -0.5291
vn -0.2864 0.6633 -0.6914
vn -0.2586 0.7370 0.6244
vn -0.0000 0.7370 0.6759
vn -0.4779 0.7370 0.4779
vn -0.6244 0.7370 0.2586
vn -0.6759 0.7370 -0.0000
vn -0.6244 0.7370 -0.2586
vn -0.4779 0.7370 -0.4779
vn -0.2586 0.7370 -0.6244
vn -0.0000 0.7370 -0.6759
vn 0.2586 0.7370 -0.6244
vn 0.4779 0.7370 -0.4779
vn 0.6244 0.7370 -0.2586
vn 0.6759 0.7370 -0.0000
vn 0.6244 0.7370 0.2586
vn 0.4779 0.7370 0.4779
vn 0.2586 0.7370 0.6244
vn 0.0281 0.9973 -0.0677
vn -0.0000 0.9973 -0.0733
vn 0.0518 0.9973 -0.0518
vn 0.0677 0.9973 -0.0281
vn 0.0733 0.9973 -0.0000
vn 0.0677 0.9973 0.0281
vn 0.0518 0.9973 0.0518
vn 0.0281 0.9973 0.0677
vn -0.0000 0.9973 0.0733
vn -0.0281 0.9973 0.0677
vn -0.0518 0.9973 0.0518
vn -0.0677 0.9973 0.0281
vn -0.0733 0.9973 -0.0000
vn -0.0677 0.9973 -0.0281
vn -0.0518 0.9973 -0.0518
vn -0.0281 0.9973 -0.0677
vn 0.2998 0.6215 -0.7238
vn -0.0000 0.6215 -0.7834
vn 0.5540 0.6215 -0.5540
vn 0.7238 0.6214 -0.2998
vn 0.7834 0.6215 -0.0000
vn 0.7238 0.6215 0.2998
vn 0.5540 0.6215 0.5540
vn 0.2998 0.6214 0.7238
vn -0.0000 0.6215 0.7834
vn -0.2998 0.6214 0.7238
vn -0.5540 0.6215 0.5540
vn -0.7238 0.6214 0.2998
vn -0.7834 0.6215 -0.0000
vn -0.7238 0.6214 -0.2998
vn -0.5540 0.6215 -0.5540
vn -0.2998 0.6215 -0.7238
vn -0.0000 -0.6934 -0.7205
vn 0.2757 -0.6935 -0.6656
vn 0.5095 -0.6934 -0.5095
vn 0.6657 -0.6934 -0.2757
vn 0.7205 -0.6934 -0.0000
vn 0.6656 -0.6935 0.2757
vn 0.5095 -0.6934 0.5095
vn 0.2757 -0.6935 0.6657
vn -0.0000 -0.6934 0.7205
vn -0.2757 -0.6934 0.6657
vn -0.5095 -0.6934 0.5095
vn -0.6657 -0.6934 0.2757
vn -0.7205 -0.6934 -0.0000
vn -0.6657 -0.6934 -0.2757
vn -0.5095 -0.6934 -0.5095
vn -0.2757 -0.6935 -0.6657
vt 0.578223 0.524539
vt 0.578223 0.975461
vt 0.937500 1.000000
vt 0.875000 0.500000
vt 0.937500 0.500000
vt 0.109277 0.975461
vt 0.109277 0.524539
vt 0.812500 1.000000
vt 0.750000 0.500000
vt 0.812500 0.500000
vt 0.609277 0.975461
vt 0.687500 1.000000
vt 0.625000 0.500000
vt 0.687500 0.500000
vt 0.203223 0.524539
vt 0.203223 0.975461
vt 0.562500 1.000000
vt 0.500000 0.500000
vt 0.562500 0.500000
vt 0.953223 0.524539
vt 0.984277 0.524539
vt 0.437500 1.000000
vt 0.375000 0.500000
vt 0.437500 0.500000
vt 0.328223 0.975461
vt 0.359277 0.975461
vt 0.312500 1.000000
vt 0.250000 0.500000
vt 0.312500 0.500000
vt 0.609277 0.524539
vt 0.187500 1.000000
vt 0.125000 0.500000
vt 0.187500 0.500000
vt 0.062500 1.000000
vt 0.000000 0.500000
vt 0.062500 0.500000
vt 0.849768 0.250000
vt 0.820546 0.179454
vt 0.788179 0.157827
vt 0.788179 0.342173
vt 0.750000 0.490000
vt 0.841844 0.471731
vt 0.919706 0.419706
vt 0.820547 0.320547
vt 0.842173 0.288180
vt 0.971731 0.341844
vt 0.990000 0.250000
vt 0.842173 0.211821
vt 0.971731 0.158156
vt 0.919706 0.080294
vt 0.841844 0.028269
vt 0.750000 0.010000
vt 0.750000 0.150232
vt 0.711820 0.157827
vt 0.658156 0.028269
vt 0.580294 0.080294
vt 0.679454 0.179454
vt 0.657827 0.211821
vt 0.528269 0.158156
vt 0.510000 0.250000
vt 0.650232 0.250000
vt 0.657827 0.288179
vt 0.528269 0.341844
vt 0.580294 0.419706
vt 0.679454 0.320547
vt 0.711821 0.342173
vt 0.658156 0.471731
vt 0.750000 0.349768
vt 1.000000 0.500000
vt 0.984277 0.975461
vt 0.953223 0.975461
vt 1.000000 1.000000
vt 0.859277 0.524539
vt 0.875000 1.000000
vt 0.859277 0.975461
vt 0.828223 0.524539
vt 0.828223 0.975461
vt 0.734277 0.975461
vt 0.750000 1.000000
vt 0.703223 0.524539
vt 0.734277 0.524539
vt 0.703223 0.975461
vt 0.625000 1.000000
vt 0.484277 0.975461
vt 0.500000 1.000000
vt 0.453223 0.524539
vt 0.484277 0.524539
vt 0.453223 0.975461
vt 0.359277 0.524539
vt 0.375000 1.000000
vt 0.328223 0.524539
vt 0.234277 0.975461
vt 0.250000 1.000000
vt 0.234277 0.524539
vt 0.125000 1.000000
vt 0.078223 0.524539
vt 0.078223 0.975461
vt 0.000000 1.000000
vt 0.250000 0.319936
vt 0.319935 0.250000
vt 0.299452 0.299452
vt 0.299452 0.200548
vt 0.200548 0.299452
vt 0.250000 0.180065
vt 0.180065 0.250000
vt 0.200548 0.200548
vt 0.199657 0.469147
vt 0.250000 0.436575
vt 0.275171 0.469551
vt 0.369363 0.440558
vt 0.381928 0.381928
vt 0.423045 0.387447
vt 0.469551 0.275171
vt 0.436575 0.250000
vt 0.469147 0.199657
vt 0.423045 0.112553
vt 0.381928 0.118072
vt 0.369363 0.059442
vt 0.275171 0.030449
vt 0.250000 0.063425
vt 0.199657 0.030853
vt 0.112553 0.076955
vt 0.118072 0.118072
vt 0.059442 0.130637
vt 0.030853 0.199657
vt 0.063425 0.250000
vt 0.030449 0.275171
vt 0.059442 0.369363
vt 0.118072 0.381928
vt 0.112553 0.423045
vt 0.193888 0.114535
vt 0.146319 0.146319
vt 0.306112 0.385465
vt 0.250000 0.490000
vt 0.250000 0.396627
vt 0.353681 0.353681
vt 0.341844 0.471731
vt 0.471731 0.341844
vt 0.419706 0.419706
vt 0.396627 0.250000
vt 0.385465 0.306112
vt 0.385465 0.193888
vt 0.490000 0.250000
vt 0.353681 0.146319
vt 0.471731 0.158156
vt 0.306112 0.114535
vt 0.419706 0.080294
vt 0.250000 0.103373
vt 0.341844 0.028269
vt 0.250000 0.010000
vt 0.080294 0.080294
vt 0.158156 0.028269
vt 0.114535 0.193888
vt 0.103373 0.250000
vt 0.028269 0.158156
vt 0.028269 0.341844
vt 0.010000 0.250000
vt 0.146319 0.353681
vt 0.114535 0.306112
vt 0.193888 0.385465
vt 0.080294 0.419706
vt 0.158156 0.471731
vt 0.207476 0.207476
vt 0.194439 0.226986
vt 0.273014 0.305561
vt 0.250000 0.310138
vt 0.292524 0.292524
vt 0.305561 0.273014
vt 0.305561 0.226986
vt 0.310138 0.250000
vt 0.292524 0.207476
vt 0.273014 0.194439
vt 0.226986 0.194439
vt 0.250000 0.189862
vt 0.194439 0.273014
vt 0.189862 0.250000
vt 0.207476 0.292524
vt 0.226986 0.305561
vt 0.266183 0.289070
vt 0.250000 0.292289
vt 0.279903 0.279903
vt 0.289070 0.266183
vt 0.289070 0.233817
vt 0.292289 0.250000
vt 0.279903 0.220097
vt 0.266183 0.210930
vt 0.233817 0.210930
vt 0.250000 0.207711
vt 0.210930 0.233817
vt 0.220097 0.220097
vt 0.210930 0.266183
vt 0.207711 0.250000
vt 0.220097 0.279903
vt 0.233817 0.289070
vt 0.779305 0.320748
vt 0.804148 0.304148
vt 0.820748 0.279305
vt 0.826577 0.250000
vt 0.820748 0.220695
vt 0.804148 0.195852
vt 0.779305 0.179252
vt 0.750000 0.173423
vt 0.720695 0.179252
vt 0.695852 0.195852
vt 0.679252 0.220695
vt 0.673423 0.250000
vt 0.679253 0.279305
vt 0.695852 0.304148
vt 0.720695 0.320747
vt 0.750000 0.326577
s 1
usemtl Material.001
f 40/1/40 87/2/86 64/2/64
f 4/3/4 53/4/53 50/5/50
f 78/6/78 111/7/96 47/7/47
f 8/8/8 57/9/57 55/10/55
f 64/2/64 88/11/83 62/11/62
f 12/12/12 61/13/61 59/14/59
f 46/15/46 93/16/82 76/16/76
f 16/17/16 65/18/65 63/19/63
f 34/20/34 97/21/89 98/20/90
f 20/22/20 69/23/69 67/24/67
f 72/25/72 92/26/86 70/26/70
f 24/27/24 73/28/73 71/29/71
f 39/30/39 104/1/94 40/1/40
f 28/31/28 77/32/77 75/33/75
f 62/11/62 103/30/92 39/30/39
f 32/34/32 49/35/49 79/36/79
f 9/37/9 13/38/13 15/39/15
f 3/40/3 49/41/49 50/42/50
f 3/40/3 53/43/53 5/44/5
f 7/45/7 53/43/53 55/46/55
f 7/45/7 57/47/57 9/37/9
f 11/48/11 57/47/57 59/49/59
f 11/48/11 61/50/61 13/38/13
f 15/39/15 61/50/61 63/51/63
f 15/39/15 65/52/65 17/53/17
f 19/54/19 65/52/65 67/55/67
f 19/54/19 69/56/69 21/57/21
f 23/58/23 69/56/69 71/59/71
f 23/58/23 73/60/73 25/61/25
f 27/62/27 73/60/73 75/63/75
f 27/62/27 77/64/77 29/65/29
f 31/66/31 77/64/77 79/67/79
f 31/66/31 49/41/49 1/68/1
f 7/45/7 15/39/15 17/53/17
f 7/45/7 19/54/19 5/44/5
f 5/44/5 21/57/21 3/40/3
f 1/68/1 21/57/21 23/58/23
f 23/58/23 31/66/31 1/68/1
f 25/61/25 29/65/29 31/66/31
f 34/20/34 49/69/49 33/21/33
f 52/70/52 4/3/4 51/71/51
f 33/21/33 2/72/2 52/70/52
f 51/71/51 50/5/50 34/20/34
f 35/73/35 6/74/6 54/75/54
f 36/76/36 53/4/53 35/73/35
f 54/75/54 8/8/8 56/77/56
f 56/77/56 55/10/55 36/76/36
f 58/78/58 57/9/57 10/79/10
f 38/80/38 57/9/57 37/81/37
f 58/78/58 12/12/12 60/82/60
f 60/82/60 59/14/59 38/80/38
f 39/30/39 14/83/14 62/11/62
f 40/1/40 61/13/61 39/30/39
f 62/11/62 16/17/16 64/2/64
f 64/2/64 63/19/63 40/1/40
f 66/84/66 65/18/65 18/85/18
f 42/86/42 65/18/65 41/87/41
f 66/84/66 20/22/20 68/88/68
f 68/88/68 67/24/67 42/86/42
f 43/89/43 22/90/22 70/26/70
f 44/91/44 69/23/69 43/89/43
f 70/26/70 24/27/24 72/25/72
f 72/25/72 71/29/71 44/91/44
f 74/92/74 73/28/73 26/93/26
f 46/15/46 73/28/73 45/94/45
f 74/92/74 28/31/28 76/16/76
f 76/16/76 75/33/75 46/15/46
f 47/7/47 30/95/30 78/6/78
f 48/96/48 77/32/77 47/7/47
f 78/6/78 32/34/32 80/97/80
f 80/97/80 79/36/79 48/96/48
f 82/70/82 98/20/90 97/21/89
f 84/75/84 100/76/92 99/73/91
f 86/78/81 102/80/93 101/81/90
f 88/11/83 104/1/94 103/30/92
f 90/84/85 106/86/95 105/87/93
f 92/26/86 108/91/96 107/89/94
f 94/92/87 110/15/89 109/94/95
f 96/6/88 112/96/91 111/7/96
f 52/70/52 97/21/89 33/21/33
f 47/7/47 112/96/91 48/96/48
f 56/77/56 84/75/84 54/75/54
f 66/84/66 105/87/93 41/87/41
f 34/20/34 81/71/81 51/71/51
f 41/87/41 106/86/95 42/86/42
f 54/75/54 99/73/91 35/73/35
f 48/96/48 95/97/84 80/97/80
f 35/73/35 100/76/92 36/76/36
f 42/86/42 89/88/87 68/88/68
f 76/16/76 94/92/87 74/92/74
f 70/26/70 107/89/94 43/89/43
f 36/76/36 83/77/83 56/77/56
f 68/88/68 90/84/85 66/84/66
f 43/89/43 108/91/96 44/91/44
f 58/78/58 101/81/90 37/81/37
f 60/82/60 86/78/81 58/78/58
f 51/71/51 82/70/82 52/70/52
f 37/81/37 102/80/93 38/80/38
f 44/91/44 91/25/88 72/25/72
f 74/92/74 109/94/95 45/94/45
f 38/80/38 85/82/85 60/82/60
f 45/94/45 110/15/89 46/15/46
f 80/97/80 96/6/88 78/6/78
f 183/2/167 136/1/120 160/2/144
f 149/4/133 114/3/98 146/5/130
f 207/7/191 174/6/158 143/7/127
f 153/9/137 116/8/100 151/10/135
f 158/11/142 183/2/167 160/2/144
f 157/13/141 118/12/102 155/14/139
f 189/16/173 142/15/126 172/16/156
f 161/18/145 120/17/104 159/19/143
f 194/20/178 129/21/113 130/20/114
f 165/23/149 122/22/106 163/24/147
f 188/26/172 168/25/152 166/26/150
f 169/28/153 124/27/108 167/29/151
f 200/1/184 135/30/119 136/1/120
f 173/32/157 126/31/110 171/33/155
f 199/30/183 158/11/142 135/30/119
f 145/35/129 128/34/112 175/36/159
f 145/69/129 130/20/114 129/21/113
f 114/3/98 148/70/132 147/71/131
f 148/70/132 145/69/129 129/21/113
f 146/5/130 147/71/131 130/20/114
f 150/75/134 149/4/133 131/73/115
f 149/4/133 132/76/116 131/73/115
f 116/8/100 150/75/134 152/77/136
f 151/10/135 152/77/136 132/76/116
f 154/78/138 153/9/137 133/81/117
f 133/81/117 155/14/139 134/80/118
f 118/12/102 154/78/138 156/82/140
f 155/14/139 156/82/140 134/80/118
f 158/11/142 157/13/141 135/30/119
f 157/13/141 136/1/120 135/30/119
f 120/17/104 158/11/142 160/2/144
f 159/19/143 160/2/144 136/1/120
f 162/84/146 161/18/145 137/87/121
f 161/18/145 138/86/122 137/87/121
f 122/22/106 162/84/146 164/88/148
f 163/24/147 164/88/148 138/86/122
f 166/26/150 165/23/149 139/89/123
f 165/23/149 140/91/124 139/89/123
f 124/27/108 166/26/150 168/25/152
f 167/29/151 168/25/152 140/91/124
f 170/92/154 169/28/153 141/94/125
f 141/94/125 171/33/155 142/15/126
f 126/31/110 170/92/154 172/16/156
f 171/33/155 172/16/156 142/15/126
f 174/6/158 173/32/157 143/7/127
f 173/32/157 144/96/128 143/7/127
f 128/34/112 174/6/158 176/97/160
f 175/36/159 176/97/160 144/96/128
f 194/20/178 178/70/162 193/21/177
f 196/76/180 180/75/164 195/73/179
f 198/80/182 182/78/166 197/81/181
f 200/1/184 184/11/168 199/30/183
f 202/86/186 186/84/170 201/87/185
f 204/91/188 188/26/172 203/89/187
f 206/15/190 190/92/174 205/94/189
f 208/96/192 192/6/176 207/7/191
f 193/21/177 148/70/132 129/21/113
f 208/96/192 143/7/127 144/96/128
f 180/75/164 152/77/136 150/75/134
f 201/87/185 162/84/146 137/87/121
f 147/71/131 194/20/178 130/20/114
f 202/86/186 137/87/121 138/86/122
f 195/73/179 150/75/134 131/73/115
f 191/97/175 144/96/128 176/97/160
f 132/76/116 195/73/179 131/73/115
f 164/88/148 202/86/186 138/86/122
f 170/92/154 189/16/173 172/16/156
f 203/89/187 166/26/150 139/89/123
f 179/77/163 132/76/116 152/77/136
f 162/84/146 185/88/169 164/88/148
f 140/91/124 203/89/187 139/89/123
f 197/81/181 154/78/138 133/81/117
f 154/78/138 181/82/165 156/82/140
f 148/70/132 177/71/161 147/71/131
f 198/80/182 133/81/117 134/80/118
f 187/25/171 140/91/124 168/25/152
f 205/94/189 170/92/154 141/94/125
f 181/82/165 134/80/118 156/82/140
f 206/15/190 141/94/125 142/15/126
f 174/6/158 191/97/175 176/97/160
f 4/3/4 115/74/99 6/74/6
f 8/8/8 117/79/101 10/79/10
f 12/12/12 119/83/103 14/83/14
f 16/17/16 121/85/105 18/85/18
f 20/22/20 123/90/107 22/90/22
f 24/27/24 125/93/109 26/93/26
f 28/31/28 127/95/111 30/95/30
f 32/34/32 113/98/97 2/98/2
f 2/72/2 114/3/98 4/3/4
f 8/8/8 115/74/99 116/8/100
f 10/79/10 118/12/102 12/12/12
f 16/17/16 119/83/103 120/17/104
f 18/85/18 122/22/106 20/22/20
f 24/27/24 123/90/107 124/27/108
f 26/93/26 126/31/110 28/31/28
f 32/34/32 127/95/111 128/34/112
f 274/72/2 354/5/326 353/69/325
f 273/3/4 355/4/327 354/5/326
f 275/74/257 356/10/328 355/4/327
f 276/8/8 357/9/329 356/10/328
f 277/79/10 358/14/330 357/9/329
f 278/12/12 359/13/331 358/14/330
f 279/83/258 360/19/332 359/13/331
f 280/17/16 361/18/333 360/19/332
f 281/85/18 362/24/334 361/18/333
f 282/22/20 363/23/335 362/24/334
f 283/90/259 364/29/336 363/23/335
f 284/27/24 365/28/337 364/29/336
f 285/93/26 366/33/338 365/28/337
f 286/31/28 367/32/339 366/33/338
f 260/131/244 315/132/287 262/132/246
f 287/95/260 368/36/340 367/32/339
f 288/34/32 353/35/325 368/36/340
f 244/133/228 274/134/2 242/135/226
f 246/136/230 273/137/4 244/133/228
f 246/136/230 276/138/8 275/139/257
f 250/140/234 276/138/8 248/141/232
f 252/142/236 277/143/10 250/140/234
f 254/144/238 278/145/12 252/142/236
f 256/146/240 279/147/258 254/144/238
f 258/148/242 280/149/16 256/146/240
f 260/131/244 281/150/18 258/148/242
f 260/131/244 283/151/259 282/152/20
f 264/153/248 283/151/259 262/132/246
f 266/154/250 284/155/24 264/153/248
f 266/154/250 286/156/28 285/157/26
f 270/158/254 286/156/28 268/159/252
f 272/160/256 287/161/260 270/158/254
f 242/135/226 288/162/32 272/160/256
f 299/163/271 348/164/320 300/164/272
f 246/136/230 308/141/280 248/141/232
f 262/132/246 316/153/288 264/153/248
f 248/141/232 309/140/281 250/140/234
f 264/153/248 317/154/289 266/154/250
f 250/140/234 310/142/282 252/142/236
f 266/154/250 318/159/290 268/159/252
f 252/142/236 311/144/283 254/144/238
f 268/159/252 319/158/291 270/158/254
f 254/144/238 312/146/284 256/146/240
f 270/158/254 320/160/292 272/160/256
f 256/146/240 313/148/285 258/148/242
f 242/135/226 305/133/277 244/133/228
f 272/160/256 306/135/278 242/135/226
f 258/148/242 314/131/286 260/131/244
f 244/133/228 307/136/279 246/136/230
f 289/165/261 306/135/278 290/166/262
f 291/167/263 305/133/277 289/165/261
f 291/167/263 308/141/280 307/136/279
f 292/168/264 309/140/281 308/141/280
f 294/169/266 309/140/281 293/170/265
f 295/171/267 310/142/282 294/169/266
f 295/171/267 312/146/284 311/144/283
f 296/172/268 313/148/285 312/146/284
f 298/173/270 313/148/285 297/174/269
f 299/163/271 314/131/286 298/173/270
f 300/164/272 315/132/287 299/163/271
f 300/164/272 317/154/289 316/153/288
f 302/175/274 317/154/289 301/176/273
f 303/177/275 318/159/290 302/175/274
f 304/178/276 319/158/291 303/177/275
f 304/178/276 306/135/278 320/160/292
f 292/168/264 341/170/313 293/170/265
f 300/164/272 349/176/321 301/176/273
f 293/170/265 342/169/314 294/169/266
f 301/176/273 350/175/322 302/175/274
f 294/169/266 343/171/315 295/171/267
f 302/175/274 351/177/323 303/177/275
f 295/171/267 344/172/316 296/172/268
f 303/177/275 352/178/324 304/178/276
f 296/172/268 345/174/317 297/174/269
f 290/166/262 337/165/309 289/165/261
f 304/178/276 338/166/310 290/166/262
f 297/174/269 346/173/318 298/173/270
f 289/165/261 339/167/311 291/167/263
f 298/173/270 347/163/319 299/163/271
f 291/167/263 340/168/312 292/168/264
f 321/179/293 338/166/310 322/180/294
f 323/181/295 337/165/309 321/179/293
f 324/182/296 339/167/311 323/181/295
f 324/182/296 341/170/313 340/168/312
f 326/183/298 341/170/313 325/184/297
f 327/185/299 342/169/314 326/183/298
f 328/186/300 343/171/315 327/185/299
f 328/186/300 345/174/317 344/172/316
f 330/187/302 345/174/317 329/188/301
f 330/187/302 347/163/319 346/173/318
f 332/189/304 347/163/319 331/190/303
f 332/189/304 349/176/321 348/164/320
f 334/191/306 349/176/321 333/192/305
f 334/191/306 351/177/323 350/175/322
f 335/193/307 352/178/324 351/177/323
f 336/194/308 338/166/310 352/178/324
f 243/195/227 353/41/325 354/42/326
f 243/195/227 355/43/327 245/196/229
f 245/196/229 356/46/328 247/197/231
f 249/198/233 356/46/328 357/47/329
f 251/199/235 357/47/329 358/49/330
f 251/199/235 359/50/331 253/200/237
f 255/201/239 359/50/331 360/51/332
f 255/201/239 361/52/333 257/202/241
f 257/202/241 362/55/334 259/203/243
f 259/203/243 363/56/335 261/204/245
f 261/204/245 364/59/336 263/205/247
f 263/205/247 365/60/337 265/206/249
f 265/206/249 366/63/338 267/207/251
f 267/207/251 367/64/339 269/208/253
f 271/209/255 367/64/339 368/67/340
f 271/209/255 353/41/325 241/210/225
f 257/202/241 261/204/245 255/201/239
f 253/200/237 261/204/245 263/205/247
f 253/200/237 265/206/249 251/199/235
f 251/199/235 267/207/251 249/198/233
f 249/198/233 269/208/253 247/197/231
f 245/196/229 269/208/253 271/209/255
f 241/210/225 245/196/229 271/209/255
f 322/180/294 335/193/307 321/179/293
f 321/179/293 334/191/306 323/181/295
f 323/181/295 333/192/305 324/182/296
f 325/184/297 333/192/305 332/189/304
f 325/184/297 331/190/303 326/183/298
f 326/183/298 330/187/302 327/185/299
f 327/185/299 329/188/301 328/186/300
f 40/1/40 104/1/94 87/2/86
f 4/3/4 6/74/6 53/4/53
f 78/6/78 96/6/88 111/7/96
f 8/8/8 10/79/10 57/9/57
f 64/2/64 87/2/86 88/11/83
f 12/12/12 14/83/14 61/13/61
f 46/15/46 110/15/89 93/16/82
f 16/17/16 18/85/18 65/18/65
f 34/20/34 33/21/33 97/21/89
f 20/22/20 22/90/22 69/23/69
f 72/25/72 91/25/88 92/26/86
f 24/27/24 26/93/26 73/28/73
f 39/30/39 103/30/92 104/1/94
f 28/31/28 30/95/30 77/32/77
f 62/11/62 88/11/83 103/30/92
f 32/34/32 2/98/2 49/35/49
f 9/37/9 11/48/11 13/38/13
f 3/40/3 1/68/1 49/41/49
f 3/40/3 50/42/50 53/43/53
f 7/45/7 5/44/5 53/43/53
f 7/45/7 55/46/55 57/47/57
f 11/48/11 9/37/9 57/47/57
f 11/48/11 59/49/59 61/50/61
f 15/39/15 13/38/13 61/50/61
f 15/39/15 63/51/63 65/52/65
f 19/54/19 17/53/17 65/52/65
f 19/54/19 67/55/67 69/56/69
f 23/58/23 21/57/21 69/56/69
f 23/58/23 71/59/71 73/60/73
f 27/62/27 25/61/25 73/60/73
f 27/62/27 75/63/75 77/64/77
f 31/66/31 29/65/29 77/64/77
f 31/66/31 79/67/79 49/41/49
f 7/45/7 9/37/9 15/39/15
f 7/45/7 17/53/17 19/54/19
f 5/44/5 19/54/19 21/57/21
f 1/68/1 3/40/3 21/57/21
f 23/58/23 25/61/25 31/66/31
f 25/61/25 27/62/27 29/65/29
f 34/20/34 50/5/50 49/69/49
f 52/70/52 2/72/2 4/3/4
f 33/21/33 49/69/49 2/72/2
f 51/71/51 4/3/4 50/5/50
f 35/73/35 53/4/53 6/74/6
f 36/76/36 55/10/55 53/4/53
f 54/75/54 6/74/6 8/8/8
f 56/77/56 8/8/8 55/10/55
f 58/78/58 37/81/37 57/9/57
f 38/80/38 59/14/59 57/9/57
f 58/78/58 10/79/10 12/12/12
f 60/82/60 12/12/12 59/14/59
f 39/30/39 61/13/61 14/83/14
f 40/1/40 63/19/63 61/13/61
f 62/11/62 14/83/14 16/17/16
f 64/2/64 16/17/16 63/19/63
f 66/84/66 41/87/41 65/18/65
f 42/86/42 67/24/67 65/18/65
f 66/84/66 18/85/18 20/22/20
f 68/88/68 20/22/20 67/24/67
f 43/89/43 69/23/69 22/90/22
f 44/91/44 71/29/71 69/23/69
f 70/26/70 22/90/22 24/27/24
f 72/25/72 24/27/24 71/29/71
f 74/92/74 45/94/45 73/28/73
f 46/15/46 75/33/75 73/28/73
f 74/92/74 26/93/26 28/31/28
f 76/16/76 28/31/28 75/33/75
f 47/7/47 77/32/77 30/95/30
f 48/96/48 79/36/79 77/32/77
f 78/6/78 30/95/30 32/34/32
f 80/97/80 32/34/32 79/36/79
f 82/70/82 81/71/81 98/20/90
f 84/75/84 83/77/83 100/76/92
f 86/78/81 85/82/85 102/80/93
f 88/11/83 87/2/86 104/1/94
f 90/84/85 89/88/87 106/86/95
f 92/26/86 91/25/88 108/91/96
f 94/92/87 93/16/82 110/15/89
f 96/6/88 95/97/84 112/96/91
f 52/70/52 82/70/82 97/21/89
f 47/7/47 111/7/96 112/96/91
f 56/77/56 83/77/83 84/75/84
f 66/84/66 90/84/85 105/87/93
f 34/20/34 98/20/90 81/71/81
f 41/87/41 105/87/93 106/86/95
f 54/75/54 84/75/84 99/73/91
f 48/96/48 112/96/91 95/97/84
f 35/73/35 99/73/91 100/76/92
f 42/86/42 106/86/95 89/88/87
f 76/16/76 93/16/82 94/92/87
f 70/26/70 92/26/86 107/89/94
f 36/76/36 100/76/92 83/77/83
f 68/88/68 89/88/87 90/84/85
f 43/89/43 107/89/94 108/91/96
f 58/78/58 86/78/81 101/81/90
f 60/82/60 85/82/85 86/78/81
f 51/71/51 81/71/81 82/70/82
f 37/81/37 101/81/90 102/80/93
f 44/91/44 108/91/96 91/25/88
f 74/92/74 94/92/87 109/94/95
f 38/80/38 102/80/93 85/82/85
f 45/94/45 109/94/95 110/15/89
f 80/97/80 95/97/84 96/6/88
f 183/2/167 200/1/184 136/1/120
f 149/4/133 115/74/99 114/3/98
f 207/7/191 192/6/176 174/6/158
f 153/9/137 117/79/101 116/8/100
f 158/11/142 184/11/168 183/2/167
f 157/13/141 119/83/103 118/12/102
f 189/16/173 206/15/190 142/15/126
f 161/18/145 121/85/105 120/17/104
f 194/20/178 193/21/177 129/21/113
f 165/23/149 123/90/107 122/22/106
f 188/26/172 187/25/171 168/25/152
f 169/28/153 125/93/109 124/27/108
f 200/1/184 199/30/183 135/30/119
f 173/32/157 127/95/111 126/31/110
f 199/30/183 184/11/168 158/11/142
f 145/35/129 113/98/97 128/34/112
f 145/69/129 146/5/130 130/20/114
f 114/3/98 113/72/97 148/70/132
f 148/70/132 113/72/97 145/69/129
f 146/5/130 114/3/98 147/71/131
f 150/75/134 115/74/99 149/4/133
f 149/4/133 151/10/135 132/76/116
f 116/8/100 115/74/99 150/75/134
f 151/10/135 116/8/100 152/77/136
f 154/78/138 117/79/101 153/9/137
f 133/81/117 153/9/137 155/14/139
f 118/12/102 117/79/101 154/78/138
f 155/14/139 118/12/102 156/82/140
f 158/11/142 119/83/103 157/13/141
f 157/13/141 159/19/143 136/1/120
f 120/17/104 119/83/103 158/11/142
f 159/19/143 120/17/104 160/2/144
f 162/84/146 121/85/105 161/18/145
f 161/18/145 163/24/147 138/86/122
f 122/22/106 121/85/105 162/84/146
f 163/24/147 122/22/106 164/88/148
f 166/26/150 123/90/107 165/23/149
f 165/23/149 167/29/151 140/91/124
f 124/27/108 123/90/107 166/26/150
f 167/29/151 124/27/108 168/25/152
f 170/92/154 125/93/109 169/28/153
f 141/94/125 169/28/153 171/33/155
f 126/31/110 125/93/109 170/92/154
f 171/33/155 126/31/110 172/16/156
f 174/6/158 127/95/111 173/32/157
f 173/32/157 175/36/159 144/96/128
f 128/34/112 127/95/111 174/6/158
f 175/36/159 128/34/112 176/97/160
f 194/20/178 177/71/161 178/70/162
f 196/76/180 179/77/163 180/75/164
f 198/80/182 181/82/165 182/78/166
f 200/1/184 183/2/167 184/11/168
f 202/86/186 185/88/169 186/84/170
f 204/91/188 187/25/171 188/26/172
f 206/15/190 189/16/173 190/92/174
f 208/96/192 191/97/175 192/6/176
f 193/21/177 178/70/162 148/70/132
f 208/96/192 207/7/191 143/7/127
f 180/75/164 179/77/163 152/77/136
f 201/87/185 186/84/170 162/84/146
f 147/71/131 177/71/161 194/20/178
f 202/86/186 201/87/185 137/87/121
f 195/73/179 180/75/164 150/75/134
f 191/97/175 208/96/192 144/96/128
f 132/76/116 196/76/180 195/73/179
f 164/88/148 185/88/169 202/86/186
f 170/92/154 190/92/174 189/16/173
f 203/89/187 188/26/172 166/26/150
f 179/77/163 196/76/180 132/76/116
f 162/84/146 186/84/170 185/88/169
f 140/91/124 204/91/188 203/89/187
f 197/81/181 182/78/166 154/78/138
f 154/78/138 182/78/166 181/82/165
f 148/70/132 178/70/162 177/71/161
f 198/80/182 197/81/181 133/81/117
f 187/25/171 204/91/188 140/91/124
f 205/94/189 190/92/174 170/92/154
f 181/82/165 198/80/182 134/80/118
f 206/15/190 205/94/189 141/94/125
f 174/6/158 192/6/176 191/97/175
f 4/3/4 114/3/98 115/74/99
f 8/8/8 116/8/100 117/79/101
f 12/12/12 118/12/102 119/83/103
f 16/17/16 120/17/104 121/85/105
f 20/22/20 122/22/106 123/90/107
f 24/27/24 124/27/108 125/93/109
f 28/31/28 126/31/110 127/95/111
f 32/34/32 128/34/112 113/98/97
f 2/72/2 113/72/97 114/3/98
f 8/8/8 6/74/6 115/74/99
f 10/79/10 117/79/101 118/12/102
f 16/17/16 14/83/14 119/83/103
f 18/85/18 121/85/105 122/22/106
f 24/27/24 22/90/22 123/90/107
f 26/93/26 125/93/109 126/31/110
f 32/34/32 30/95/30 127/95/111
f 274/72/2 273/3/4 354/5/326
f 273/3/4 275/74/257 355/4/327
f 275/74/257 276/8/8 356/10/328
f 276/8/8 277/79/10 357/9/329
f 277/79/10 278/12/12 358/14/330
f 278/12/12 279/83/258 359/13/331
f 279/83/258 280/17/16 360/19/332
f 280/17/16 281/85/18 361/18/333
f 281/85/18 282/22/20 362/24/334
f 282/22/20 283/90/259 363/23/335
f 283/90/259 284/27/24 364/29/336
f 284/27/24 285/93/26 365/28/337
f 285/93/26 286/31/28 366/33/338
f 286/31/28 287/95/260 367/32/339
f 260/131/244 314/131/286 315/132/287
f 287/95/260 288/34/32 368/36/340
f 288/34/32 274/98/2 353/35/325
f 244/133/228 273/137/4 274/134/2
f 246/136/230 275/139/257 273/137/4
f 246/136/230 248/141/232 276/138/8
f 250/140/234 277/143/10 276/138/8
f 252/142/236 278/145/12 277/143/10
f 254/144/238 279/147/258 278/145/12
f 256/146/240 280/149/16 279/147/258
f 258/148/242 281/150/18 280/149/16
f 260/131/244 282/152/20 281/150/18
f 260/131/244 262/132/246 283/151/259
f 264/153/248 284/155/24 283/151/259
f 266/154/250 285/157/26 284/155/24
f 266/154/250 268/159/252 286/156/28
f 270/158/254 287/161/260 286/156/28
f 272/160/256 288/162/32 287/161/260
f 242/135/226 274/134/2 288/162/32
f 299/163/271 347/163/319 348/164/320
f 246/136/230 307/136/279 308/141/280
f 262/132/246 315/132/287 316/153/288
f 248/141/232 308/141/280 309/140/281
f 264/153/248 316/153/288 317/154/289
f 250/140/234 309/140/281 310/142/282
f 266/154/250 317/154/289 318/159/290
f 252/142/236 310/142/282 311/144/283
f 268/159/252 318/159/290 319/158/291
f 254/144/238 311/144/283 312/146/284
f 270/158/254 319/158/291 320/160/292
f 256/146/240 312/146/284 313/148/285
f 242/135/226 306/135/278 305/133/277
f 272/160/256 320/160/292 306/135/278
f 258/148/242 313/148/285 314/131/286
f 244/133/228 305/133/277 307/136/279
f 289/165/261 305/133/277 306/135/278
f 291/167/263 307/136/279 305/133/277
f 291/167/263 292/168/264 308/141/280
f 292/168/264 293/170/265 309/140/281
f 294/169/266 310/142/282 309/140/281
f 295/171/267 311/144/283 310/142/282
f 295/171/267 296/172/268 312/146/284
f 296/172/268 297/174/269 313/148/285
f 298/173/270 314/131/286 313/148/285
f 299/163/271 315/132/287 314/131/286
f 300/164/272 316/153/288 315/132/287
f 300/164/272 301/176/273 317/154/289
f 302/175/274 318/159/290 317/154/289
f 303/177/275 319/158/291 318/159/290
f 304/178/276 320/160/292 319/158/291
f 304/178/276 290/166/262 306/135/278
f 292/168/264 340/168/312 341/170/313
f 300/164/272 348/164/320 349/176/321
f 293/170/265 341/170/313 342/169/314
f 301/176/273 349/176/321 350/175/322
f 294/169/266 342/169/314 343/171/315
f 302/175/274 350/175/322 351/177/323
f 295/171/267 343/171/315 344/172/316
f 303/177/275 351/177/323 352/178/324
f 296/172/268 344/172/316 345/174/317
f 290/166/262 338/166/310 337/165/309
f 304/178/276 352/178/324 338/166/310
f 297/174/269 345/174/317 346/173/318
f 289/165/261 337/165/309 339/167/311
f 298/173/270 346/173/318 347/163/319
f 291/167/263 339/167/311 340/168/312
f 321/179/293 337/165/309 338/166/310
f 323/181/295 339/167/311 337/165/309
f 324/182/296 340/168/312 339/167/311
f 324/182/296 325/184/297 341/170/313
f 326/183/298 342/169/314 341/170/313
f 327/185/299 343/171/315 342/169/314
f 328/186/300 344/172/316 343/171/315
f 328/186/300 329/188/301 345/174/317
f 330/187/302 346/173/318 345/174/317
f 330/187/302 331/190/303 347/163/319
f 332/189/304 348/164/320 347/163/319
f 332/189/304 333/192/305 349/176/321
f 334/191/306 350/175/322 349/176/321
f 334/191/306 335/193/307 351/177/323
f 335/193/307 336/194/308 352/178/324
f 336/194/308 322/180/294 338/166/310
f 243/195/227 241/210/225 353/41/325
f 243/195/227 354/42/326 355/43/327
f 245/196/229 355/43/327 356/46/328
f 249/198/233 247/197/231 356/46/328
f 251/199/235 249/198/233 357/47/329
f 251/199/235 358/49/330 359/50/331
f 255/201/239 253/200/237 359/50/331
f 255/201/239 360/51/332 361/52/333
f 257/202/241 361/52/333 362/55/334
f 259/203/243 362/55/334 363/56/335
f 261/204/245 363/56/335 364/59/336
f 263/205/247 364/59/336 365/60/337
f 265/206/249 365/60/337 366/63/338
f 267/207/251 366/63/338 367/64/339
f 271/209/255 269/208/253 367/64/339
f 271/209/255 368/67/340 353/41/325
f 257/202/241 259/203/243 261/204/245
f 253/200/237 255/201/239 261/204/245
f 253/200/237 263/205/247 265/206/249
f 251/199/235 265/206/249 267/207/251
f 249/198/233 267/207/251 269/208/253
f 245/196/229 247/197/231 269/208/253
f 241/210/225 243/195/227 245/196/229
f 322/180/294 336/194/308 335/193/307
f 321/179/293 335/193/307 334/191/306
f 323/181/295 334/191/306 333/192/305
f 325/184/297 324/182/296 333/192/305
f 325/184/297 332/189/304 331/190/303
f 326/183/298 331/190/303 330/187/302
f 327/185/299 330/187/302 329/188/301
usemtl Material.002
f 210/99/194 211/100/195 209/101/193
f 212/102/196 216/103/200 213/104/197
f 213/104/197 215/105/199 214/106/198
f 217/107/201 218/108/202 219/109/203
f 220/110/204 221/111/205 222/112/206
f 223/113/207 224/114/208 225/115/209
f 226/116/210 227/117/211 228/118/212
f 229/119/213 230/120/214 231/121/215
f 232/122/216 233/123/217 234/124/218
f 235/125/219 236/126/220 237/127/221
f 238/128/222 239/129/223 240/130/224
f 220/110/204 219/109/203 218/108/202
f 217/107/201 240/130/224 239/129/223
f 223/113/207 222/112/206 221/111/205
f 226/116/210 225/115/209 224/114/208
f 229/119/213 228/118/212 227/117/211
f 232/122/216 231/121/215 230/120/214
f 235/125/219 234/124/218 233/123/217
f 238/128/222 237/127/221 236/126/220
f 210/99/194 212/102/196 211/100/195
f 212/102/196 210/99/194 216/103/200
f 213/104/197 216/103/200 215/105/199
f 218/108/202 210/99/194 209/101/193
f 209/101/193 221/111/205 218/108/202
f 221/111/205 220/110/204 218/108/202
f 239/129/223 216/103/200 210/99/194
f 210/99/194 218/108/202 239/129/223
f 218/108/202 217/107/201 239/129/223
f 221/111/205 209/101/193 211/100/195
f 211/100/195 224/114/208 221/111/205
f 224/114/208 223/113/207 221/111/205
f 224/114/208 211/100/195 212/102/196
f 212/102/196 227/117/211 224/114/208
f 227/117/211 226/116/210 224/114/208
f 227/117/211 212/102/196 213/104/197
f 213/104/197 230/120/214 227/117/211
f 230/120/214 229/119/213 227/117/211
f 230/120/214 213/104/197 214/106/198
f 214/106/198 233/123/217 230/120/214
f 233/123/217 232/122/216 230/120/214
f 233/123/217 214/106/198 215/105/199
f 215/105/199 236/126/220 233/123/217
f 236/126/220 235/125/219 233/123/217
f 236/126/220 215/105/199 216/103/200
f 216/103/200 239/129/223 236/126/220
f 239/129/223 238/128/222 236/126/220
